<?xml version="1.0" encoding="UTF-8"?>
<svg id="Calque_1" xmlns="http://www.w3.org/2000/svg" viewBox="0 0 205.13 53.44"><script xmlns="" id="bw-fido2-page-script"/><defs><style>.cls-1{fill:#f27649;}</style></defs><path d="M7.24,19.88h-.29l.73,7.53H0V0H7.39V8.41l-.81,5.3h.44c.48-7.5,4.75-8.66,7.9-8.66,5.62,0,9,5.07,9,11.43s-3.33,11.37-9,11.37c-3.11,0-6.66-1.68-7.68-7.97Zm9.54-3.25c0-2.89-2.23-4.2-5.15-4.2s-5.16,1.31-5.16,4.2,2.27,4.17,5.16,4.17,5.15-1.36,5.15-4.17Z"/><path d="M24.38,21.58c0-5.37,5.37-7.09,10.71-7.09,1.43,0,2.86,.09,4.27,.29v-.33c-.51-1.86-2.74-2.41-4.86-2.41-2.74,.04-5.39,.93-7.6,2.54h-.47V7.16c2.81-1.4,5.92-2.12,9.06-2.11,7.2,0,11.44,4.31,11.44,10.41v12h-7.46v-.66l1-9.21h-.4c-.22,7-3.4,10.31-8.52,10.31-3.77-.05-7.17-1.84-7.17-6.32Zm14.3-4.07h-2.09c-4,0-5,1.39-5,2.74s1.21,2.08,2.67,2.08c2.54,0,4.23-1.9,4.42-4.82Z"/><path d="M48.86,27.41V0h7.71V27.41h-7.71Z"/><path d="M58.58,27.41V0h7.71V27.41h-7.71Z"/><path d="M67.61,21.58c0-5.37,5.37-7.09,10.71-7.09,1.43,0,2.86,.09,4.27,.29v-.33c-.51-1.86-2.74-2.41-4.86-2.41-2.74,.04-5.39,.94-7.6,2.56h-.45V7.16c2.8-1.39,5.88-2.12,9-2.11,7.2,0,11.44,4.31,11.44,10.41v12h-7.44v-.66l1-9.22h-.4c-.22,7-3.4,10.31-8.52,10.31-3.75-.04-7.15-1.83-7.15-6.31Zm14.33-4.09h-2.12c-4,0-5,1.39-5,2.74s1.21,2.08,2.67,2.08c2.54,.02,4.19-1.88,4.45-4.8v-.02Z"/><path d="M91.58,16.48c0-6.36,3.36-11.43,9-11.43,3.14,0,7.42,1.16,7.9,8.66h.4l-.77-5.3V0h7.38V27.41h-7.71l.77-7.53h-.29c-1.06,6.29-4.57,8-7.68,8-5.67-.03-9-5.04-9-11.4Zm17.43,.15c0-2.89-2.26-4.2-5.15-4.2s-5.18,1.31-5.18,4.2,2.27,4.17,5.19,4.17,5.14-1.36,5.14-4.17h0Z"/><path d="M117.23,23.76c.17-2.46,2.3-4.33,4.76-4.16,2.23,.15,4.01,1.93,4.16,4.16-.23,2.46-2.42,4.27-4.88,4.04-2.14-.2-3.83-1.9-4.04-4.04Z"/><path d="M126.55,16.41c0-6.29,4.61-11.36,12.1-11.36,2.45-.02,4.85,.67,6.91,2V15.05h-.44c-2.45-2.05-4.61-2.82-6.58-2.82-2.12,0-4.75,1.14-4.75,4.21s2.63,4.2,4.75,4.2c2.46-.1,4.8-1.09,6.58-2.78h.44v8c-2.05,1.34-4.46,2.03-6.91,2-7.49,0-12.1-5.05-12.1-11.45Z"/><path d="M147.31,27.41V0h7.71V27.41h-7.71Z"/><path d="M156.99,18.02V5.48h7.69V13.89c0,3.11,.4,5.92,3.22,5.92,2.48,0,3.73-2,3.73-8.48V5.48h7.63V27.41h-7.78l1.31-12.46h-.36c-.88,9.43-3.18,12.9-8.33,12.9-4.22,0-7.11-2.63-7.11-9.83Z"/><path d="M188.46,19.88h-.3l.74,7.53h-7.68V0h7.38V8.41l-.8,5.3h.44c.47-7.5,4.75-8.66,7.89-8.66,5.63,0,9,5.07,9,11.43s-3.32,11.37-9,11.37c-3.1,0-6.65-1.68-7.67-7.97Zm9.54-3.25c0-2.89-2.23-4.2-5.16-4.2s-5.16,1.31-5.16,4.2,2.27,4.17,5.15,4.17,5.17-1.36,5.17-4.17h0Z"/><path class="cls-1" d="M147.31,49.58v-16.68h5.05v13c.22-.43,.72-.45,1.19-.45h6.13v4.13h-12.37Z"/><path class="cls-1" d="M160.94,52.99v-4.32c.61,.25,1.25,.39,1.91,.43,1.74,0,2.24-1,4.05-1.62,.37-.13,.75-.2,1.14-.21v-.22h-6l-4.1-11.77h5.27l1.64,5.22c.57,1.64,.91,3.35,1,5.08h.21c.09-1.73,.43-3.44,1-5.08l1.62-5.22h5.27l-4.27,12.87c-1.48,4.74-3.84,5.29-5.94,5.29-.95,0-1.9-.16-2.8-.45Z"/><path class="cls-1" d="M173.28,42.45c0-4.1,3.05-7.46,7.89-7.46s7.89,3.36,7.89,7.46-3,7.41-7.89,7.41-7.89-3.28-7.89-7.41Zm11.3,0c0-1.83-1.53-2.71-3.41-2.71s-3.38,.88-3.38,2.71,1.5,2.74,3.38,2.74,3.41-.9,3.41-2.74h0Z"/><path class="cls-1" d="M189.99,49.58v-14.3h5.07l-.86,8.13h.24c.57-6.15,2.12-8.42,5.48-8.42,2.72,0,4.58,1.74,4.58,6.44v8.15h-5v-5.46c0-2-.24-3.88-2-3.88-2.38,0-2.59,2.88-2.59,6.38v3l-4.92-.04Z"/></svg>