<?xml version="1.0" encoding="UTF-8" standalone="no"?>
<!-- Created with Inkscape (http://www.inkscape.org/) -->

<svg
   width="851.95831mm"
   height="851.95831mm"
   viewBox="0 0 851.95831 851.95831"
   version="1.1"
   id="svg1795"
   inkscape:version="1.1.2 (0a00cf5339, 2022-02-04)"
   sodipodi:docname="logo.svg"
   xmlns:inkscape="http://www.inkscape.org/namespaces/inkscape"
   xmlns:sodipodi="http://sodipodi.sourceforge.net/DTD/sodipodi-0.dtd"
   xmlns="http://www.w3.org/2000/svg"
   xmlns:svg="http://www.w3.org/2000/svg">
  <sodipodi:namedview
     id="namedview1797"
     pagecolor="#ffffff"
     bordercolor="#000000"
     borderopacity="0.25"
     inkscape:pageshadow="2"
     inkscape:pageopacity="0.0"
     inkscape:pagecheckerboard="0"
     inkscape:document-units="mm"
     showgrid="false"
     inkscape:zoom="0.13748183"
     inkscape:cx="-112.74217"
     inkscape:cy="1203.7955"
     inkscape:window-width="2260"
     inkscape:window-height="1082"
     inkscape:window-x="104"
     inkscape:window-y="38"
     inkscape:window-maximized="0"
     inkscape:current-layer="layer1"
     fit-margin-top="0"
     fit-margin-left="0"
     fit-margin-right="0"
     fit-margin-bottom="0" />
  <defs
     id="defs1792" />
  <g
     inkscape:label="Layer 1"
     inkscape:groupmode="layer"
     id="layer1">
    <rect
       style="fill:#343f58;fill-opacity:1;stroke-width:0.0164571;stroke-linecap:square;paint-order:markers fill stroke"
       id="rect1489"
       width="851.95831"
       height="851.95831"
       x="2.8421709e-14"
       y="0"
       ry="0"
       inkscape:export-filename="/home/marc-gavanier/Storage/work/hack-your-job/assets/logo.png"
       inkscape:export-xdpi="61.058384"
       inkscape:export-ydpi="61.058384" />
    <g
       id="g1715"
       transform="matrix(4.6969474,0,0,-4.670366,3717.0985,24568.971)"
       inkscape:export-filename="/home/marc-gavanier/Storage/work/hack-your-job/assets/logo.png"
       inkscape:export-xdpi="61.058384"
       inkscape:export-ydpi="61.058384">
      <g
         id="g9"
         transform="matrix(0.75000002,0,0,-0.75000002,-788.03074,5256.663)">
        <polygon
           class="st0"
           points="44.8,55.9 44.8,35.3 35.3,35.3 35.3,85.7 44.8,85.7 44.8,64.9 61.1,64.9 61.1,85.7 70.6,85.7 70.6,35.3 61.1,35.3 61.1,55.9 "
           id="polygon11"
           style="fill:#b1dde8;fill-opacity:1" />
        <path
           class="st0"
           d="m 87.5,35.3 -12,50.4 h 9.9 L 87.8,74.9 H 105 l 2.4,10.8 h 9.9 l -12,-50.4 z m 2.3,30.5 6,-25.8 H 97 l 5.8,25.8 z"
           id="path13"
           style="fill:#b1dde8;fill-opacity:1" />
        <path
           class="st0"
           d="m 152.4,39.3 c -1.6,-1.6 -3.5,-2.9 -5.8,-3.7 -2.3,-0.9 -4.9,-1.3 -7.9,-1.3 -2.9,0 -5.5,0.5 -7.8,1.4 -2.3,0.9 -4.3,2.3 -5.9,4 -1.6,1.8 -2.9,3.9 -3.7,6.5 -0.9,2.6 -1.3,5.5 -1.3,8.7 v 11.2 c 0,6.7 1.7,11.8 5,15.3 3.4,3.5 7.9,5.3 13.7,5.3 6,0 10.6,-1.6 13.7,-4.9 3.1,-3.2 4.7,-7.9 4.7,-13.9 v -1.3 h -9.5 V 68 c 0,1.3 -0.1,2.6 -0.4,3.8 -0.2,1.2 -0.7,2.3 -1.3,3.2 -0.6,0.9 -1.6,1.7 -2.7,2.2 -1.2,0.6 -2.7,0.8 -4.5,0.8 -1.7,0 -3.1,-0.3 -4.3,-0.8 -1.2,-0.6 -2.1,-1.3 -2.8,-2.3 -0.7,-1 -1.2,-2.2 -1.6,-3.6 -0.3,-1.4 -0.5,-2.9 -0.5,-4.5 V 54.1 c 0,-1.5 0.2,-2.9 0.5,-4.3 0.4,-1.4 0.9,-2.6 1.7,-3.6 0.8,-1 1.7,-1.8 2.9,-2.4 1.2,-0.6 2.5,-0.9 4.1,-0.9 1.7,0 3.2,0.3 4.3,0.9 1.2,0.6 2.1,1.4 2.7,2.3 0.7,1 1.2,2 1.4,3.2 0.3,1.2 0.4,2.4 0.4,3.6 v 1.3 H 157 V 53 c 0,-2.9 -0.4,-5.5 -1.2,-7.8 -0.7,-2.3 -1.8,-4.3 -3.4,-5.9 z"
           id="path15"
           style="fill:#b1dde8;fill-opacity:1" />
        <polygon
           class="st0"
           points="173.3,65 175.4,65 189.1,85.7 200.3,85.7 200.3,85.2 183.9,61.1 183.9,59.8 199.4,35.7 199.4,35.3 188.7,35.3 175.4,55.9 173.3,55.9 173.3,35.3 163.8,35.3 163.8,85.7 173.3,85.7 "
           id="polygon17"
           style="fill:#b1dde8;fill-opacity:1" />
        <polygon
           class="st0"
           points="58.7,141.5 58.7,123.8 60.9,123.8 75.3,91.1 65,91.1 54.6,115.2 53.3,115.2 42.9,91.1 32.6,91.1 47,123.8 49.2,123.8 49.2,141.5 "
           id="polygon19"
           style="fill:#b1dde8;fill-opacity:1" />
        <path
           class="st0"
           d="m 95.3,142.5 c 5.8,0 10.4,-1.8 13.6,-5.3 3.3,-3.5 4.9,-8.6 4.9,-15.3 v -11.2 c 0,-6.5 -1.6,-11.6 -4.9,-15.2 -3.3,-3.6 -7.8,-5.4 -13.6,-5.4 -5.8,0 -10.4,1.8 -13.6,5.4 -3.3,3.6 -4.9,8.7 -4.9,15.2 V 122 c 0,6.7 1.6,11.8 4.9,15.3 3.2,3.5 7.8,5.2 13.6,5.2 z m -9.1,-32.4 c 0,-1.6 0.2,-3.1 0.5,-4.5 0.3,-1.4 0.9,-2.6 1.6,-3.6 0.7,-1 1.7,-1.8 2.8,-2.4 1.2,-0.6 2.5,-0.9 4.2,-0.9 1.6,0 3,0.3 4.2,0.9 1.2,0.6 2.1,1.4 2.8,2.4 0.7,1 1.2,2.2 1.6,3.6 0.3,1.4 0.5,2.9 0.5,4.5 v 12.4 c 0,1.7 -0.1,3.2 -0.4,4.6 -0.3,1.4 -0.8,2.6 -1.5,3.6 -0.7,1 -1.7,1.8 -2.8,2.3 -1.2,0.6 -2.6,0.8 -4.3,0.8 -1.7,0 -3.2,-0.3 -4.3,-0.8 -1.2,-0.6 -2.1,-1.3 -2.8,-2.3 -0.7,-1 -1.2,-2.2 -1.5,-3.6 -0.3,-1.4 -0.4,-2.9 -0.4,-4.6 v -12.4 z"
           id="path21"
           style="fill:#b1dde8;fill-opacity:1" />
        <path
           class="st0"
           d="m 137.9,142.5 c 6,0 10.5,-1.6 13.6,-4.9 3,-3.3 4.6,-7.8 4.6,-13.5 v -33 h -9.5 v 33 c 0,3 -0.7,5.3 -2.1,7 -1.4,1.7 -3.6,2.5 -6.6,2.5 -3,0 -5.2,-0.8 -6.6,-2.5 -1.4,-1.7 -2.1,-4 -2.1,-7 v -33 h -9.5 v 33 c 0,5.8 1.5,10.3 4.6,13.5 3.1,3.3 7.6,4.9 13.6,4.9 z"
           id="path23"
           style="fill:#b1dde8;fill-opacity:1" />
        <path
           class="st0"
           d="m 194.6,95.2 c -1.3,-1.3 -3,-2.3 -4.9,-3 -2,-0.7 -4.2,-1.1 -6.8,-1.1 h -19.3 v 50.4 h 9.5 v -19 H 184 c 1.4,0 2.4,0.4 3,1.1 0.6,0.7 0.9,1.7 0.9,2.8 v 15.1 h 9.5 v -17.4 c 0,-1.7 -0.5,-3.1 -1.5,-4.2 -1,-1.1 -2.3,-1.8 -4,-1.9 v -1.3 c 2.3,-1 4,-2.3 5.1,-4.1 1.1,-1.8 1.7,-3.7 1.7,-5.8 V 105 c 0,-1.9 -0.3,-3.7 -1,-5.4 -0.8,-1.6 -1.8,-3.1 -3.1,-4.4 z m -5.5,12.1 c 0,2 -0.6,3.5 -1.8,4.6 -1.2,1.1 -3,1.6 -5.3,1.6 h -9 v -13.2 h 9.1 c 2.3,0 4.1,0.6 5.3,1.8 1.2,1.2 1.8,2.7 1.8,4.4 v 0.8 z"
           id="path25"
           style="fill:#b1dde8;fill-opacity:1" />
        <path
           class="st0"
           d="m 96.5,155.9 h 5.2 v 26.4 c 0,2.3 -0.6,4.1 -1.8,5.3 -1.2,1.2 -2.8,1.9 -4.9,1.9 -2.3,0 -4,-0.6 -5.3,-1.9 -1.2,-1.3 -1.9,-3 -1.9,-5.3 v -4.8 h -9.5 v 4.8 c 0,2.6 0.4,5 1.2,6.9 0.8,2 2,3.7 3.5,5 1.5,1.4 3.3,2.4 5.3,3.1 2.1,0.7 4.4,1 6.9,1 4.9,0 8.8,-1.4 11.7,-4.1 2.8,-2.8 4.2,-6.8 4.2,-12 v -26.4 h 4.3 V 147 h -19 v 8.9 z"
           id="path27"
           style="fill:#b1dde8;fill-opacity:1" />
        <path
           class="st0"
           d="m 138.3,146 c -5.8,0 -10.4,1.8 -13.6,5.4 -3.3,3.6 -4.9,8.7 -4.9,15.2 v 11.2 c 0,6.7 1.6,11.8 4.9,15.3 3.3,3.5 7.8,5.3 13.6,5.3 5.8,0 10.4,-1.8 13.6,-5.3 3.3,-3.5 4.9,-8.6 4.9,-15.3 v -11.2 c 0,-6.5 -1.6,-11.6 -4.9,-15.2 -3.2,-3.6 -7.7,-5.4 -13.6,-5.4 z m 9.1,32.4 c 0,1.7 -0.1,3.2 -0.4,4.6 -0.3,1.4 -0.8,2.6 -1.5,3.6 -0.7,1 -1.7,1.8 -2.8,2.3 -1.2,0.6 -2.6,0.8 -4.3,0.8 -1.7,0 -3.2,-0.3 -4.3,-0.8 -1.2,-0.6 -2.1,-1.3 -2.8,-2.3 -0.7,-1 -1.2,-2.2 -1.5,-3.6 -0.3,-1.4 -0.4,-2.9 -0.4,-4.6 V 166 c 0,-1.6 0.2,-3.1 0.5,-4.5 0.3,-1.4 0.9,-2.6 1.6,-3.6 0.7,-1 1.7,-1.8 2.8,-2.4 1.2,-0.6 2.5,-0.9 4.2,-0.9 1.6,0 3,0.3 4.2,0.9 1.2,0.6 2.1,1.4 2.8,2.4 0.7,1 1.2,2.2 1.6,3.6 0.3,1.4 0.5,2.9 0.5,4.5 v 12.4 z"
           id="path29"
           style="fill:#b1dde8;fill-opacity:1" />
        <path
           class="st0"
           d="m 194.7,150.7 c -1.3,-1.2 -2.8,-2.1 -4.7,-2.7 -1.8,-0.7 -4,-1 -6.4,-1 h -22.1 v 9.1 h 4.8 v 32.3 h -4.8 v 9.1 h 22.1 c 2.4,0 4.5,-0.3 6.4,-1 1.8,-0.7 3.4,-1.6 4.7,-2.8 1.3,-1.2 2.2,-2.6 2.9,-4.2 0.6,-1.6 1,-3.3 1,-5.2 v -0.9 c 0,-2.9 -0.8,-5.2 -2.4,-6.9 -1.6,-1.8 -3.6,-3 -6.1,-3.6 v -1.3 c 2.4,-0.7 4.5,-1.9 6.1,-3.6 1.6,-1.7 2.4,-4 2.4,-6.9 v -0.9 c 0,-1.9 -0.3,-3.6 -1,-5.2 -0.6,-1.7 -1.6,-3.1 -2.9,-4.3 z m -5.2,32 c 0,2 -0.6,3.5 -1.9,4.3 -1.2,0.9 -2.9,1.3 -4.9,1.3 h -6.9 v -11.7 h 6.9 c 2,0 3.6,0.4 4.9,1.3 1.2,0.9 1.9,2.3 1.9,4.3 z m 0,-20.6 c 0,2 -0.6,3.4 -1.9,4.3 -1.2,0.8 -2.9,1.3 -4.9,1.3 h -6.9 v -11.5 h 6.9 c 2,0 3.6,0.4 4.9,1.3 1.2,0.8 1.9,2.3 1.9,4.3 z"
           id="path31"
           style="fill:#b1dde8;fill-opacity:1" />
        <polygon
           class="st0"
           points="44.8,188.3 44.8,197.4 70.6,197.4 70.6,147 44.8,147 44.8,156.1 61.1,156.1 61.1,188.3 "
           id="polygon33"
           style="fill:#b1dde8;fill-opacity:1" />
        <polygon
           class="st0"
           points="32.8,172.2 44.8,184.2 44.8,176.7 51.6,176.7 51.6,167.7 44.8,167.7 44.8,160.2 "
           id="polygon35"
           style="fill:#b1dde8;fill-opacity:1" />
      </g>
    </g>
  </g>
</svg>
