<?xml version="1.0" encoding="UTF-8" standalone="no"?>
<!-- Created with Inkscape (http://www.inkscape.org/) -->

<svg
   width="302.38449mm"
   height="48.708889mm"
   viewBox="0 0 302.38449 48.708889"
   version="1.1"
   id="svg30507"
   inkscape:version="1.1.2 (0a00cf5339, 2022-02-04)"
   sodipodi:docname="drawing.svg"
   xmlns:inkscape="http://www.inkscape.org/namespaces/inkscape"
   xmlns:sodipodi="http://sodipodi.sourceforge.net/DTD/sodipodi-0.dtd"
   xmlns="http://www.w3.org/2000/svg"
   xmlns:svg="http://www.w3.org/2000/svg">
  <sodipodi:namedview
     id="namedview30509"
     pagecolor="#ffffff"
     bordercolor="#000000"
     borderopacity="0.25"
     inkscape:pageshadow="2"
     inkscape:pageopacity="0.0"
     inkscape:pagecheckerboard="0"
     inkscape:document-units="mm"
     showgrid="false"
     inkscape:zoom="0.77771465"
     inkscape:cx="430.74925"
     inkscape:cy="337.5274"
     inkscape:window-width="1551"
     inkscape:window-height="1082"
     inkscape:window-x="889"
     inkscape:window-y="98"
     inkscape:window-maximized="0"
     inkscape:current-layer="layer1"
     fit-margin-top="0"
     fit-margin-left="0"
     fit-margin-right="0"
     fit-margin-bottom="0" />
  <defs
     id="defs30504" />
  <g
     inkscape:label="Layer 1"
     inkscape:groupmode="layer"
     id="layer1"
     transform="translate(8.9860612,-59.336275)">
    <path
       style="fill:#1e0f68;fill-opacity:1;stroke-width:0.264583"
       d="M 48.658883,89.082095 V 72.148762 h 3.042708 c 2.977941,0 3.042785,0.01267 3.04632,0.595313 0.0021,0.327422 0.07396,0.857668 0.159935,1.178325 0.151583,0.565337 0.198094,0.551476 1.534031,-0.457166 2.085078,-1.57425 3.285228,-1.9342 6.504506,-1.950838 3.194415,-0.01651 4.876151,0.495195 6.957938,2.117102 5.351452,4.169278 5.871348,14.023591 0.997022,18.89792 -2.041867,2.041866 -4.221629,2.956311 -7.413303,3.110002 -2.894248,0.139367 -4.813667,-0.274196 -6.460995,-1.392102 -0.540829,-0.36702 -1.037571,-0.667306 -1.103871,-0.667306 -0.0663,0 -0.120541,2.797969 -0.120541,6.217708 v 6.21771 h -3.571875 -3.571875 z m 14.99788,-0.01683 c 1.058918,-0.400087 2.186437,-1.529461 2.756757,-2.761292 0.663003,-1.43202 0.656688,-4.130752 -0.01312,-5.606071 -1.007977,-2.220177 -3.703875,-3.391919 -6.301692,-2.738961 -3.066108,0.770662 -4.671012,3.517637 -4.029982,6.89777 0.543695,2.866897 2.473081,4.489364 5.33908,4.489761 0.827272,1.16e-4 1.839304,-0.126429 2.248957,-0.281207 z M 220.63805,72.148762 h 2.87955 c 2.76255,0 2.88604,0.02419 3.0391,0.595313 0.0877,0.327422 0.16116,0.863203 0.16315,1.190625 0.005,0.780983 0.14989,0.754003 1.27953,-0.237831 2.22461,-1.953234 6.13737,-2.825111 9.33654,-2.080455 5.72215,1.331915 8.96044,6.143004 8.63828,12.833797 -0.26172,5.435683 -2.8856,9.12375 -7.63101,10.72599 -1.42527,0.481229 -2.12263,0.554566 -4.34369,0.456803 -2.65438,-0.116837 -4.04893,-0.534273 -5.62239,-1.682941 l -0.59531,-0.434594 v 12.499961 h -7.14375 z m 15.51399,16.529426 c 2.12231,-1.243756 3.06561,-3.773895 2.47284,-6.632724 -0.78866,-3.803644 -5.00176,-5.472976 -8.44158,-3.344764 -1.61354,0.998297 -2.38608,2.559113 -2.38824,4.825145 -0.004,3.675872 2.02634,5.815846 5.51974,5.819204 1.33898,0.0013 1.93696,-0.139264 2.83724,-0.666861 z M 0.180854,95.30531 C -3.558297,94.276062 -6.167047,91.219553 -6.776795,87.153468 L -6.9637,85.907095 h 7.690955 l 0.171608,0.781325 c 0.648932,2.954568 4.769146,3.885671 7.059483,1.595335 C 8.56411,87.677991 8.7068,87.302024 8.7068,86.311688 c 0,-2.122731 -0.947266,-2.6309 -7.822654,-4.196525 -5.015591,-1.142122 -7.410654,-2.644878 -8.838767,-5.545787 -1.803133,-3.662683 -1.204975,-8.063964 1.503354,-11.061761 2.544853,-2.816847 7.459536,-4.253875 12.559202,-3.672246 6.476162,0.738622 9.892733,3.667546 11.181724,9.585789 l 0.158472,0.727604 H 9.837025 L 9.380583,70.953585 C 8.6444,69.025918 6.683842,67.920386 3.995317,67.916904 c -3.056616,-0.004 -5.0781,1.37527 -5.0781,3.464709 0,2.21412 0.59762,2.590904 6.427746,4.052529 2.503854,0.627721 5.114003,1.406691 5.80033,1.731044 1.851064,0.874798 3.520353,2.47807 4.359672,4.187256 0.663264,1.350671 0.74246,1.794167 0.74246,4.157778 0,2.314499 -0.08847,2.834579 -0.706486,4.153033 -1.288952,2.749817 -3.873142,4.750818 -7.282157,5.638755 -1.850163,0.481906 -6.332551,0.48374 -8.077928,0.0033 z m 26.780484,0.158387 c -2.111756,-0.687681 -3.741208,-2.155034 -4.736079,-4.264935 0,0 -0.06877,0.285975 -0.455705,-1.404755 -0.386937,-1.69073 -0.312801,-8.847849 -0.312801,-8.847849 l -0.08233,-8.797396 h 7.153555 l 0.07743,7.800501 0.07744,7.800502 0.841708,0.841327 c 0.688486,0.688173 1.103273,0.863018 2.2786,0.960485 1.89993,0.157557 3.206864,-0.451088 3.904348,-1.818267 0.474596,-0.930288 0.515969,-1.595649 0.515969,-8.297966 v -7.286582 h 7.14375 v 23.01875 h -5.79686 L 37.39133,94.175324 c -0.263996,-1.463045 -0.35515,-1.509699 -1.263835,-0.646829 -1.605862,1.524905 -2.944148,1.999975 -5.857153,2.079202 -1.455208,0.03958 -2.944259,-0.02522 -3.309004,-0.144 z M 85.558219,95.160278 C 82.431635,94.168646 79.752568,91.66327 78.492799,88.552929 77.984291,87.297438 77.9034,86.607503 77.9034,83.525845 c 0,-3.081657 0.08089,-3.771593 0.589399,-5.027083 1.217785,-3.006679 3.801018,-5.471376 6.810875,-6.498345 1.965727,-0.670711 5.733087,-0.799801 7.817136,-0.267858 4.106534,1.048172 7.04474,4.039743 7.89266,8.035997 0.32876,1.549411 0.38696,3.772966 0.13213,5.047133 l -0.16536,0.826823 h -8.197697 -8.197694 l 0.179361,0.727604 c 0.57178,2.319531 2.438836,3.632676 5.169672,3.635955 1.397974,0.0016 1.949165,-0.132776 2.945564,-0.718524 0.674174,-0.396325 1.295517,-0.90234 1.380758,-1.124479 0.214958,-0.560171 7.050766,-0.607941 7.050766,-0.04927 0,0.195038 -0.36475,1.084546 -0.81056,1.976684 -1.282777,2.567061 -4.017119,4.60185 -7.156519,5.325599 -1.942807,0.44789 -5.985786,0.315056 -7.785672,-0.255799 z m 8.332264,-15.116383 c -0.512604,-1.787345 -2.202879,-2.86805 -4.485767,-2.86805 -2.282889,0 -3.973163,1.080705 -4.485767,2.86805 l -0.239795,0.836117 h 4.725562 4.725561 z M 171.23332,95.451 c -5.57329,-1.397852 -9.03168,-7.447098 -8.06559,-14.107967 0.60198,-4.150477 2.86044,-7.371392 6.29604,-8.9791 3.31499,-1.551274 8.36335,-1.270274 10.95899,0.609993 l 1.05695,0.765655 V 59.962583 h 7.01146 l 0.13607,35.204929 h -6.02102 l -0.1778,-1.3403 -0.1778,-1.3403 -0.96869,0.850527 c -1.83595,1.611982 -3.58296,2.21927 -6.54909,2.276568 -1.45521,0.02811 -3.02999,-0.04524 -3.49952,-0.163007 z m 6.95782,-6.605127 c 2.39513,-1.087848 3.6286,-3.862834 3.02003,-6.794297 -0.85117,-4.100061 -6.13096,-5.786136 -9.2216,-2.944873 -2.16531,1.990591 -2.16731,6.885332 -0.004,8.81874 1.65808,1.481606 4.15437,1.851887 6.20518,0.92043 z m 22.46083,6.314405 c -3.13677,-0.994862 -5.83601,-3.525173 -7.04848,-6.607349 -0.86487,-2.198571 -0.99248,-6.76884 -0.25663,-9.191454 1.00804,-3.318743 3.44479,-5.972854 6.6323,-7.223906 2.05553,-0.806766 5.90473,-0.998996 8.22365,-0.410689 4.63551,1.176021 7.71925,4.861861 8.12591,9.712476 0.0807,0.962844 0.064,2.302444 -0.0371,2.976891 l -0.18389,1.226265 h -8.18587 c -6.3754,0 -8.18458,0.07315 -8.18006,0.330729 0.0132,0.749779 1.04203,2.536177 1.75172,3.041528 2.29325,1.632937 6.31378,1.240428 7.70981,-0.752681 0.31527,-0.450109 0.71179,-0.502909 3.77683,-0.502909 2.6863,0 3.42458,0.07645 3.42458,0.354615 0,0.195038 -0.36475,1.084546 -0.81055,1.976684 -1.28278,2.567061 -4.01712,4.60185 -7.15652,5.325599 -1.94281,0.44789 -5.98579,0.315056 -7.78567,-0.255799 z m 8.33226,-15.116383 c -0.5126,-1.787345 -2.20288,-2.86805 -4.48577,-2.86805 -2.28289,0 -3.97316,1.080705 -4.48576,2.86805 l -0.2398,0.836117 h 4.72556 4.72556 z m -103.43993,-7.91142 3.23792,0.07429 c 2.64074,0.06059 3.24747,0.147488 3.28967,0.471165 0.0285,0.218281 0.12785,0.860653 0.22086,1.427493 l 0.16911,1.030617 0.48379,-0.795519 c 0.92458,-1.520362 2.90167,-2.451776 5.21086,-2.454866 1.95791,-0.0026 1.93987,-0.03363 1.93987,3.334124 v 3.014401 l -1.25677,0.0015 c -1.81015,0.0021 -3.11913,0.436724 -4.21595,1.399751 -1.79901,1.579546 -1.92326,2.175011 -1.9298,9.248252 l -0.006,6.283849 h -7.14375 z m 18.25625,0.01629 h 7.14375 v 23.01875 h -7.14375 z m 12.7,-0.01733 2.97339,0.07481 c 2.7409,0.06896 2.97962,0.116188 3.05301,0.603978 0.0438,0.291042 0.13918,0.80662 0.21198,1.145731 l 0.13237,0.616564 0.84407,-0.825239 c 0.46424,-0.453882 1.50137,-1.148054 2.30473,-1.542606 1.29274,-0.634899 1.76482,-0.717367 4.10649,-0.717367 2.25625,0 2.82114,0.09099 3.83646,0.617918 2.44878,1.510237 4.15324,3.158969 4.6302,5.732082 0.38217,1.699402 0.0825,8.665104 0.0825,8.665104 l 0.0825,8.665104 h -7.17653 l -5.3e-4,-7.209896 c -5.3e-4,-7.930333 -0.0837,-8.406756 -1.67264,-9.572338 -1.10129,-0.807864 -3.44797,-0.764037 -4.64074,0.08667 -1.53687,1.09621 -1.62359,1.605924 -1.62359,9.543316 v 7.152248 h -7.14375 z m 126.20624,5.838163 h -4.23333 v -5.820833 h 4.23333 v -2.500521 c 0,-1.375286 0.12936,-3.10363 0.28745,-3.840765 0.65826,-3.069356 3.14245,-5.247758 6.66131,-5.841289 1.82911,-0.30852 4.86881,-0.237826 5.45904,0.126961 0.18304,0.113116 0.2922,1.212755 0.2922,2.943101 v 2.76251 h -1.4637 c -3.39333,0 -4.33617,1.18838 -4.14562,5.225521 l 0.0531,1.124479 h 5.55625 v 5.820833 h -5.55625 v 17.197917 h -7.14375 z m 16.40417,-5.820833 h 6.52725 l 0.0873,1.565043 c 0,0 0.22908,1.121618 1.24135,0.0012 1.00796,-1.115693 2.80699,-1.83079 4.60587,-1.83079 1.82694,0 1.8257,-0.0022 1.8257,3.299375 v 2.978176 l -1.73395,0.139184 c -2.33304,0.187275 -3.93729,1.166591 -4.86613,2.970557 -0.65985,1.281482 -0.67813,1.462762 -0.7665,7.604408 l -0.0905,6.291633 h -6.83038 z"
       id="path935"
       sodipodi:nodetypes="ccscsssssssssccccsssssssscsssssssssccccssssssssccssssssssccssssssssssscszcccccssssccccssscsssssssscccscssssssssscccssssscccccccsssssssssssssssscsssssssssssscccscssscssscssscccccccccssscsssccccccscscccccccssssscssccccccccccssscsssccc" />
    <circle
       style="fill:#ff799c;fill-opacity:1;stroke-width:0.770001;stroke-linecap:square;stroke-linejoin:round;paint-order:markers fill stroke"
       id="path2748"
       cx="4.0099416"
       cy="103.36526"
       r="4.6799068" />
    <circle
       style="fill:#ff799c;fill-opacity:1;stroke-width:0.770001;stroke-linecap:square;stroke-linejoin:round;paint-order:markers fill stroke"
       id="path2748-3"
       cx="127.26353"
       cy="64.016182"
       r="4.6799068" />
    <circle
       style="fill:#ff799c;fill-opacity:1;stroke-width:0.770001;stroke-linecap:square;stroke-linejoin:round;paint-order:markers fill stroke"
       id="path2748-3-6"
       cx="252.19598"
       cy="91.129669"
       r="4.6799068" />
  </g>
</svg>
