<svg xmlns="http://www.w3.org/2000/svg" xmlns:xlink="http://www.w3.org/1999/xlink" width="0" height="0" style="display:none;"><symbol viewBox="0 0 24 24" id="discord-fill"><path d="M19.3034 5.33716C17.9344 4.71103 16.4805 4.2547 14.9629 4C14.7719 4.32899 14.5596 4.77471 14.411 5.12492C12.7969 4.89144 11.1944 4.89144 9.60255 5.12492C9.45397 4.77471 9.2311 4.32899 9.05068 4C7.52251 4.2547 6.06861 4.71103 4.70915 5.33716C1.96053 9.39111 1.21766 13.3495 1.5891 17.2549C3.41443 18.5815 5.17612 19.388 6.90701 19.9187C7.33151 19.3456 7.71356 18.73 8.04255 18.0827C7.41641 17.8492 6.82211 17.5627 6.24904 17.2231C6.39762 17.117 6.5462 17.0003 6.68416 16.8835C10.1438 18.4648 13.8911 18.4648 17.3082 16.8835C17.4568 17.0003 17.5948 17.117 17.7434 17.2231C17.1703 17.5627 16.576 17.8492 15.9499 18.0827C16.2789 18.73 16.6609 19.3456 17.0854 19.9187C18.8152 19.388 20.5875 18.5815 22.4033 17.2549C22.8596 12.7341 21.6806 8.80747 19.3034 5.33716ZM8.5201 14.8459C7.48007 14.8459 6.63107 13.9014 6.63107 12.7447C6.63107 11.5879 7.45884 10.6434 8.5201 10.6434C9.57071 10.6434 10.4303 11.5879 10.4091 12.7447C10.4091 13.9014 9.57071 14.8459 8.5201 14.8459ZM15.4936 14.8459C14.4535 14.8459 13.6034 13.9014 13.6034 12.7447C13.6034 11.5879 14.4323 10.6434 15.4936 10.6434C16.5442 10.6434 17.4038 11.5879 17.3825 12.7447C17.3825 13.9014 16.5548 14.8459 15.4936 14.8459Z"></path></symbol><symbol viewBox="0 0 24 24" id="facebook-fill"><path d="M14 13.5H16.5L17.5 9.5H14V7.5C14 6.47062 14 5.5 16 5.5H17.5V2.1401C17.1743 2.09685 15.943 2 14.6429 2C11.9284 2 10 3.65686 10 6.69971V9.5H7V13.5H10V22H14V13.5Z"></path></symbol><symbol viewBox="0 0 24 24" id="dribbble-line"><path d="M19.9887 11.5716C19.9029 9.94513 19.3313 8.44745 18.4163 7.22097C18.1749 7.48407 17.8785 7.7698 17.4957 8.09159C16.5881 8.85458 15.4887 9.54307 14.1834 10.101C14.3498 10.4506 14.5029 10.7899 14.6376 11.1098L14.6388 11.1125C14.6652 11.1742 14.6879 11.2306 14.7321 11.3418C14.7379 11.3562 14.7433 11.3697 14.7485 11.3825C16.2621 11.2122 17.8576 11.2749 19.4049 11.4845C19.6106 11.5123 19.805 11.5415 19.9887 11.5716ZM10.6044 4.1213C10.7783 4.36621 10.9602 4.62859 11.1803 4.95378C11.7929 5.8589 12.396 6.81391 12.9604 7.79507C13.0749 7.99416 13.187 8.19289 13.2964 8.39112C14.5193 7.90993 15.5296 7.30281 16.3438 6.62486C16.6731 6.35063 16.9383 6.093 17.1403 5.86972C15.7501 4.70277 13.9571 4 12 4C11.524 4 11.0576 4.04158 10.6044 4.1213ZM4.25266 9.99755C4.83145 9.98452 5.48467 9.94941 6.29303 9.87518C7.90024 9.72758 9.54141 9.46249 11.1549 9.05274C10.5719 8.03721 9.93888 7.02331 9.29452 6.05378C8.98479 5.58775 8.68357 5.14992 8.45484 4.82642C6.39541 5.84613 4.83794 7.72658 4.25266 9.99755ZM5.78366 17.036C6.17111 16.4693 6.68061 15.8314 7.35797 15.1374C8.81199 13.6478 10.5286 12.4878 12.5139 11.8473C12.5417 11.8391 12.5604 11.8336 12.576 11.829C12.411 11.4651 12.2562 11.1405 12.1003 10.8342C10.2643 11.3687 8.3303 11.703 6.40279 11.8762C5.46319 11.9606 4.62005 11.9981 4 12.0044C4.00102 13.9112 4.66915 15.662 5.78366 17.036ZM15.0045 19.4166C14.9001 18.8745 14.7669 18.2706 14.5899 17.574C14.2689 16.3112 13.8668 15.012 13.373 13.7078C11.3712 14.4343 9.77574 15.4974 8.54309 16.7649C7.94904 17.3757 7.51244 17.9537 7.22642 18.4203C8.55892 19.4127 10.2109 20 12 20C13.0626 20 14.0769 19.7928 15.0045 19.4166ZM16.8778 18.3414C18.4073 17.1632 19.4985 15.444 19.8652 13.4703C19.5253 13.3865 19.094 13.3005 18.6196 13.2346C17.5756 13.0897 16.5014 13.0655 15.4409 13.2018C15.8933 14.4764 16.2642 15.7332 16.5608 16.9361C16.6903 17.4614 16.7958 17.9358 16.8778 18.3414ZM12 22C6.47715 22 2 17.5228 2 12C2 6.47715 6.47715 2 12 2C17.5228 2 22 6.47715 22 12C22 17.5228 17.5228 22 12 22Z"></path></symbol><symbol viewBox="0 0 24 24" id="linkedin-fill"><path d="M6.94048 4.99993C6.94011 5.81424 6.44608 6.54702 5.69134 6.85273C4.9366 7.15845 4.07187 6.97605 3.5049 6.39155C2.93793 5.80704 2.78195 4.93715 3.1105 4.19207C3.43906 3.44699 4.18654 2.9755 5.00048 2.99993C6.08155 3.03238 6.94097 3.91837 6.94048 4.99993ZM7.00048 8.47993H3.00048V20.9999H7.00048V8.47993ZM13.3205 8.47993H9.34048V20.9999H13.2805V14.4299C13.2805 10.7699 18.0505 10.4299 18.0505 14.4299V20.9999H22.0005V13.0699C22.0005 6.89993 14.9405 7.12993 13.2805 10.1599L13.3205 8.47993Z"></path></symbol><symbol viewBox="0 0 24 24" id="github-fill"><path d="M12.001 2C6.47598 2 2.00098 6.475 2.00098 12C2.00098 16.425 4.86348 20.1625 8.83848 21.4875C9.33848 21.575 9.52598 21.275 9.52598 21.0125C9.52598 20.775 9.51348 19.9875 9.51348 19.15C7.00098 19.6125 6.35098 18.5375 6.15098 17.975C6.03848 17.6875 5.55098 16.8 5.12598 16.5625C4.77598 16.375 4.27598 15.9125 5.11348 15.9C5.90098 15.8875 6.46348 16.625 6.65098 16.925C7.55098 18.4375 8.98848 18.0125 9.56348 17.75C9.65098 17.1 9.91348 16.6625 10.201 16.4125C7.97598 16.1625 5.65098 15.3 5.65098 11.475C5.65098 10.3875 6.03848 9.4875 6.67598 8.7875C6.57598 8.5375 6.22598 7.5125 6.77598 6.1375C6.77598 6.1375 7.61348 5.875 9.52598 7.1625C10.326 6.9375 11.176 6.825 12.026 6.825C12.876 6.825 13.726 6.9375 14.526 7.1625C16.4385 5.8625 17.276 6.1375 17.276 6.1375C17.826 7.5125 17.476 8.5375 17.376 8.7875C18.0135 9.4875 18.401 10.375 18.401 11.475C18.401 15.3125 16.0635 16.1625 13.8385 16.4125C14.201 16.725 14.5135 17.325 14.5135 18.2625C14.5135 19.6 14.501 20.675 14.501 21.0125C14.501 21.275 14.6885 21.5875 15.1885 21.4875C19.259 20.1133 21.9999 16.2963 22.001 12C22.001 6.475 17.526 2 12.001 2Z"></path></symbol><symbol viewBox="0 0 24 24" id="gitlab-fill"><path d="M21.6634 9.98693L21.6354 9.91531L18.9164 2.82092C18.8612 2.68178 18.7634 2.56365 18.6371 2.48339C18.5098 2.40304 18.3607 2.36419 18.2104 2.37219C18.0601 2.38019 17.9159 2.43464 17.7979 2.52804C17.6809 2.62181 17.5966 2.75012 17.5569 2.89466L15.7187 8.52049H8.28157L6.44336 2.89466C6.40366 2.75012 6.31934 2.62181 6.20241 2.52804C6.08487 2.43402 5.94083 2.37915 5.79052 2.37114C5.64021 2.36313 5.49116 2.40238 5.36429 2.48339C5.2374 2.56332 5.13921 2.68153 5.08388 2.82092L2.36183 9.92462L2.33379 9.99524C1.94304 11.0184 1.895 12.1407 2.19691 13.1934C2.49882 14.2462 3.13436 15.1725 4.00794 15.833L4.01832 15.8402L4.04221 15.8589L8.18917 18.9632L10.2393 20.5159L11.4856 21.4599C11.6319 21.5705 11.8104 21.6304 11.9939 21.6304C12.1774 21.6304 12.3559 21.5705 12.5023 21.4599L13.7486 20.5159L15.7997 18.9632L19.9706 15.8402L19.9819 15.8319C20.8585 15.1721 21.4966 14.245 21.7999 13.1906C22.1033 12.1362 22.0553 11.0117 21.6634 9.98693Z"></path></symbol><symbol viewBox="0 0 24 24" id="instagram-fill"><path d="M13.0281 2.00098C14.1535 2.00284 14.7238 2.00879 15.2166 2.02346L15.4107 2.02981C15.6349 2.03778 15.8561 2.04778 16.1228 2.06028C17.1869 2.10944 17.9128 2.27778 18.5503 2.52528C19.2094 2.77944 19.7661 3.12278 20.3219 3.67861C20.8769 4.23444 21.2203 4.79278 21.4753 5.45028C21.7219 6.08694 21.8903 6.81361 21.9403 7.87778C21.9522 8.14444 21.9618 8.36564 21.9697 8.58989L21.976 8.78397C21.9906 9.27672 21.9973 9.8471 21.9994 10.9725L22.0002 11.7182C22.0003 11.8093 22.0003 11.9033 22.0003 12.0003L22.0002 12.2824L21.9996 13.0281C21.9977 14.1535 21.9918 14.7238 21.9771 15.2166L21.9707 15.4107C21.9628 15.6349 21.9528 15.8561 21.9403 16.1228C21.8911 17.1869 21.7219 17.9128 21.4753 18.5503C21.2211 19.2094 20.8769 19.7661 20.3219 20.3219C19.7661 20.8769 19.2069 21.2203 18.5503 21.4753C17.9128 21.7219 17.1869 21.8903 16.1228 21.9403C15.8561 21.9522 15.6349 21.9618 15.4107 21.9697L15.2166 21.976C14.7238 21.9906 14.1535 21.9973 13.0281 21.9994L12.2824 22.0002C12.1913 22.0003 12.0973 22.0003 12.0003 22.0003L11.7182 22.0002L10.9725 21.9996C9.8471 21.9977 9.27672 21.9918 8.78397 21.9771L8.58989 21.9707C8.36564 21.9628 8.14444 21.9528 7.87778 21.9403C6.81361 21.8911 6.08861 21.7219 5.45028 21.4753C4.79194 21.2211 4.23444 20.8769 3.67861 20.3219C3.12278 19.7661 2.78028 19.2069 2.52528 18.5503C2.27778 17.9128 2.11028 17.1869 2.06028 16.1228C2.0484 15.8561 2.03871 15.6349 2.03086 15.4107L2.02457 15.2166C2.00994 14.7238 2.00327 14.1535 2.00111 13.0281L2.00098 10.9725C2.00284 9.8471 2.00879 9.27672 2.02346 8.78397L2.02981 8.58989C2.03778 8.36564 2.04778 8.14444 2.06028 7.87778C2.10944 6.81278 2.27778 6.08778 2.52528 5.45028C2.77944 4.79194 3.12278 4.23444 3.67861 3.67861C4.23444 3.12278 4.79278 2.78028 5.45028 2.52528C6.08778 2.27778 6.81278 2.11028 7.87778 2.06028C8.14444 2.0484 8.36564 2.03871 8.58989 2.03086L8.78397 2.02457C9.27672 2.00994 9.8471 2.00327 10.9725 2.00111L13.0281 2.00098ZM12.0003 7.00028C9.23738 7.00028 7.00028 9.23981 7.00028 12.0003C7.00028 14.7632 9.23981 17.0003 12.0003 17.0003C14.7632 17.0003 17.0003 14.7607 17.0003 12.0003C17.0003 9.23738 14.7607 7.00028 12.0003 7.00028ZM12.0003 9.00028C13.6572 9.00028 15.0003 10.3429 15.0003 12.0003C15.0003 13.6572 13.6576 15.0003 12.0003 15.0003C10.3434 15.0003 9.00028 13.6576 9.00028 12.0003C9.00028 10.3434 10.3429 9.00028 12.0003 9.00028ZM17.2503 5.50028C16.561 5.50028 16.0003 6.06018 16.0003 6.74943C16.0003 7.43867 16.5602 7.99944 17.2503 7.99944C17.9395 7.99944 18.5003 7.43954 18.5003 6.74943C18.5003 6.06018 17.9386 5.49941 17.2503 5.50028Z"></path></symbol><symbol viewBox="0 0 24 24" id="mastodon-fill"><path d="M21.2595 13.9898C20.9852 15.4006 18.8033 16.9446 16.2974 17.2439C14.9907 17.3998 13.7041 17.5431 12.3321 17.4802C10.0885 17.3774 8.31809 16.9446 8.31809 16.9446C8.31809 17.163 8.33156 17.371 8.3585 17.5655C8.65019 19.7797 10.5541 19.9124 12.3576 19.9742C14.1779 20.0365 15.7987 19.5254 15.7987 19.5254L15.8735 21.1711C15.8735 21.1711 14.6003 21.8548 12.3321 21.9805C11.0814 22.0493 9.52849 21.9491 7.71973 21.4703C3.79684 20.432 3.12219 16.2504 3.01896 12.0074C2.98749 10.7477 3.00689 9.55981 3.00689 8.56632C3.00689 4.22771 5.84955 2.95599 5.84955 2.95599C7.2829 2.29772 9.74238 2.0209 12.2993 2H12.3621C14.919 2.0209 17.3801 2.29772 18.8133 2.95599C18.8133 2.95599 21.6559 4.22771 21.6559 8.56632C21.6559 8.56632 21.6916 11.7674 21.2595 13.9898ZM18.3029 8.9029C18.3029 7.82924 18.0295 6.97604 17.4805 6.34482C16.9142 5.71359 16.1726 5.39001 15.2522 5.39001C14.187 5.39001 13.3805 5.79937 12.8473 6.61819L12.3288 7.48723L11.8104 6.61819C11.2771 5.79937 10.4706 5.39001 9.40554 5.39001C8.485 5.39001 7.74344 5.71359 7.17719 6.34482C6.62807 6.97604 6.3547 7.82924 6.3547 8.9029V14.1562H8.43597V9.05731C8.43597 7.98246 8.88822 7.4369 9.79281 7.4369C10.793 7.4369 11.2944 8.08408 11.2944 9.36376V12.1547H13.3634V9.36376C13.3634 8.08408 13.8646 7.4369 14.8648 7.4369C15.7694 7.4369 16.2216 7.98246 16.2216 9.05731V14.1562H18.3029V8.9029Z"></path></symbol><symbol viewBox="0 0 24 24" id="pinterest-fill"><path d="M13.3717 2.09442C8.42512 1.41268 3.73383 4.48505 2.38064 9.29256C1.02745 14.1001 3.42711 19.1692 8.00271 21.1689C7.94264 20.4008 7.99735 19.628 8.16502 18.8761C8.34964 18.0374 9.46121 13.4132 9.46121 13.4132C9.23971 12.9173 9.12893 12.379 9.13659 11.8359C9.13659 10.3509 9.99353 9.24295 11.0597 9.24295C11.4472 9.23718 11.8181 9.40028 12.0758 9.68981C12.3335 9.97934 12.4526 10.3667 12.402 10.751C12.402 11.6512 11.8236 13.0131 11.5228 14.2903C11.4014 14.7656 11.5131 15.2703 11.8237 15.65C12.1343 16.0296 12.6069 16.2389 13.0967 16.2139C14.9944 16.2139 16.2675 13.7825 16.2675 10.9126C16.2675 8.71205 14.8098 7.0655 12.1243 7.0655C10.826 7.01531 9.56388 7.4996 8.63223 8.40543C7.70057 9.31126 7.18084 10.5595 7.19423 11.859C7.16563 12.5722 7.39566 13.2717 7.84194 13.8287C8.01361 13.9564 8.07985 14.1825 8.00425 14.3827C7.9581 14.5673 7.84194 15.0059 7.79578 15.1675C7.77632 15.278 7.70559 15.3728 7.60516 15.4228C7.50473 15.4729 7.38651 15.4724 7.28654 15.4214C5.9019 14.8674 5.24957 13.3439 5.24957 11.6051C5.24957 8.75822 7.63424 5.3497 12.4036 5.3497C16.1998 5.3497 18.723 8.1273 18.723 11.0972C18.723 15.0059 16.5468 17.9451 13.3298 17.9451C12.3526 17.9761 11.4273 17.5061 10.8759 16.6986C10.8759 16.6986 10.2974 19.0146 10.1835 19.4531C9.95101 20.2099 9.60779 20.9281 9.16505 21.5844C10.0877 21.8643 11.0471 22.0044 12.0113 22C14.6636 22.0017 17.2078 20.9484 19.0829 19.072C20.958 17.1957 22.0099 14.6504 22.0069 11.9975C22.004 7.00306 18.3183 2.77616 13.3717 2.09442Z"></path></symbol><symbol viewBox="0 0 24 24" id="slack-fill"><path d="M6.52739 14.5138C6.52739 15.5969 5.64264 16.4816 4.55959 16.4816C3.47654 16.4816 2.5918 15.5969 2.5918 14.5138C2.5918 13.4308 3.47654 12.546 4.55959 12.546H6.52739V14.5138ZM7.51892 14.5138C7.51892 13.4308 8.40366 12.546 9.48671 12.546C10.5698 12.546 11.4545 13.4308 11.4545 14.5138V19.4409C11.4545 20.524 10.5698 21.4087 9.48671 21.4087C8.40366 21.4087 7.51892 20.524 7.51892 19.4409V14.5138ZM9.48671 6.52739C8.40366 6.52739 7.51892 5.64264 7.51892 4.55959C7.51892 3.47654 8.40366 2.5918 9.48671 2.5918C10.5698 2.5918 11.4545 3.47654 11.4545 4.55959V6.52739H9.48671ZM9.48671 7.51892C10.5698 7.51892 11.4545 8.40366 11.4545 9.48671C11.4545 10.5698 10.5698 11.4545 9.48671 11.4545H4.55959C3.47654 11.4545 2.5918 10.5698 2.5918 9.48671C2.5918 8.40366 3.47654 7.51892 4.55959 7.51892H9.48671ZM17.4732 9.48671C17.4732 8.40366 18.3579 7.51892 19.4409 7.51892C20.524 7.51892 21.4087 8.40366 21.4087 9.48671C21.4087 10.5698 20.524 11.4545 19.4409 11.4545H17.4732V9.48671ZM16.4816 9.48671C16.4816 10.5698 15.5969 11.4545 14.5138 11.4545C13.4308 11.4545 12.546 10.5698 12.546 9.48671V4.55959C12.546 3.47654 13.4308 2.5918 14.5138 2.5918C15.5969 2.5918 16.4816 3.47654 16.4816 4.55959V9.48671ZM14.5138 17.4732C15.5969 17.4732 16.4816 18.3579 16.4816 19.4409C16.4816 20.524 15.5969 21.4087 14.5138 21.4087C13.4308 21.4087 12.546 20.524 12.546 19.4409V17.4732H14.5138ZM14.5138 16.4816C13.4308 16.4816 12.546 15.5969 12.546 14.5138C12.546 13.4308 13.4308 12.546 14.5138 12.546H19.4409C20.524 12.546 21.4087 13.4308 21.4087 14.5138C21.4087 15.5969 20.524 16.4816 19.4409 16.4816H14.5138Z"></path></symbol><symbol viewBox="0 0 24 24" id="tiktok-fill"><path d="M16 8.24537V15.5C16 19.0899 13.0899 22 9.5 22C5.91015 22 3 19.0899 3 15.5C3 11.9101 5.91015 9 9.5 9C10.0163 9 10.5185 9.06019 11 9.17393V12.3368C10.5454 12.1208 10.0368 12 9.5 12C7.567 12 6 13.567 6 15.5C6 17.433 7.567 19 9.5 19C11.433 19 13 17.433 13 15.5V2H16C16 4.76142 18.2386 7 21 7V10C19.1081 10 17.3696 9.34328 16 8.24537Z"></path></symbol><symbol viewBox="0 0 24 24" id="spotify-fill"><path d="M12.001 2C6.50098 2 2.00098 6.5 2.00098 12C2.00098 17.5 6.50098 22 12.001 22C17.501 22 22.001 17.5 22.001 12C22.001 6.5 17.551 2 12.001 2ZM15.751 16.65C13.401 15.2 10.451 14.8992 6.95014 15.6992C6.60181 15.8008 6.30098 15.55 6.20098 15.25C6.10098 14.8992 6.35098 14.6 6.65098 14.5C10.451 13.6492 13.751 14 16.351 15.6C16.701 15.75 16.7501 16.1492 16.6018 16.45C16.4018 16.7492 16.0518 16.85 15.751 16.65ZM16.7501 13.95C14.051 12.3 9.95098 11.8 6.80098 12.8C6.40181 12.9 5.95098 12.7 5.85098 12.3C5.75098 11.9 5.95098 11.4492 6.35098 11.3492C10.001 10.25 14.501 10.8008 17.601 12.7C17.9018 12.8508 18.051 13.35 17.8018 13.7C17.551 14.05 17.101 14.2 16.7501 13.95ZM6.30098 9.75083C5.80098 9.9 5.30098 9.6 5.15098 9.15C5.00098 8.64917 5.30098 8.15 5.75098 7.99917C9.30098 6.94917 15.151 7.14917 18.8518 9.35C19.301 9.6 19.451 10.2 19.201 10.65C18.9518 11.0008 18.351 11.1492 17.9018 10.9C14.701 9 9.35098 8.8 6.30098 9.75083Z"></path></symbol><symbol viewBox="0 0 24 24" id="twitter-x-line"><path d="M8 2H1L9.26086 13.0145L1.44995 21.9999H4.09998L10.4883 14.651L16 22H23L14.3917 10.5223L21.8001 2H19.1501L13.1643 8.88578L8 2ZM17 20L5 4H7L19 20H17Z"></path></symbol><symbol viewBox="0 0 24 24" id="stack-overflow-line"><path d="M18.001 20.0028V15.0003H20.001V22.0028H4.00098V15.0003H6.00098V20.0028H18.001ZM7.50098 18.0003V16.0003H16.501V18.0003H7.50098ZM7.578 13.6199L7.9253 11.6503L16.7886 13.2131L16.4413 15.1827L7.578 13.6199ZM9.21156 8.11632L10.2116 6.38427L18.0058 10.8843L17.0058 12.6163L9.21156 8.11632ZM12.6289 3.50335L14.161 2.21777L19.9461 9.11217L18.414 10.3977L12.6289 3.50335Z"></path></symbol><symbol viewBox="0 0 24 24" id="tumblr-fill"><path d="M6.27051 7.62976C8.86829 7.07312 10.816 4.76401 10.816 2H13.8463V7.15152H17.4826V10.7879H13.8463V16.2424C13.8463 16.7566 14.044 17.4493 14.7554 17.9091C15.2296 18.2156 16.2397 18.3671 17.7857 18.3636V22H13.5432C11.0329 22 8.99778 19.9649 8.99778 17.4545V10.7879H6.27051V7.62976Z"></path></symbol><symbol viewBox="0 0 24 24" id="youtube-fill"><path d="M12.2439 4C12.778 4.00294 14.1143 4.01586 15.5341 4.07273L16.0375 4.09468C17.467 4.16236 18.8953 4.27798 19.6037 4.4755C20.5486 4.74095 21.2913 5.5155 21.5423 6.49732C21.942 8.05641 21.992 11.0994 21.9982 11.8358L21.9991 11.9884L21.9991 11.9991C21.9991 11.9991 21.9991 12.0028 21.9991 12.0099L21.9982 12.1625C21.992 12.8989 21.942 15.9419 21.5423 17.501C21.2878 18.4864 20.5451 19.261 19.6037 19.5228C18.8953 19.7203 17.467 19.8359 16.0375 19.9036L15.5341 19.9255C14.1143 19.9824 12.778 19.9953 12.2439 19.9983L12.0095 19.9991L11.9991 19.9991C11.9991 19.9991 11.9956 19.9991 11.9887 19.9991L11.7545 19.9983C10.6241 19.9921 5.89772 19.941 4.39451 19.5228C3.4496 19.2573 2.70692 18.4828 2.45587 17.501C2.0562 15.9419 2.00624 12.8989 2 12.1625V11.8358C2.00624 11.0994 2.0562 8.05641 2.45587 6.49732C2.7104 5.51186 3.45308 4.73732 4.39451 4.4755C5.89772 4.05723 10.6241 4.00622 11.7545 4H12.2439ZM9.99911 8.49914V15.4991L15.9991 11.9991L9.99911 8.49914Z"></path></symbol><symbol viewBox="0 0 24 24" id="global-line"><path d="M12 22C6.47715 22 2 17.5228 2 12C2 6.47715 6.47715 2 12 2C17.5228 2 22 6.47715 22 12C22 17.5228 17.5228 22 12 22ZM9.71002 19.6674C8.74743 17.6259 8.15732 15.3742 8.02731 13H4.06189C4.458 16.1765 6.71639 18.7747 9.71002 19.6674ZM10.0307 13C10.1811 15.4388 10.8778 17.7297 12 19.752C13.1222 17.7297 13.8189 15.4388 13.9693 13H10.0307ZM19.9381 13H15.9727C15.8427 15.3742 15.2526 17.6259 14.29 19.6674C17.2836 18.7747 19.542 16.1765 19.9381 13ZM4.06189 11H8.02731C8.15732 8.62577 8.74743 6.37407 9.71002 4.33256C6.71639 5.22533 4.458 7.8235 4.06189 11ZM10.0307 11H13.9693C13.8189 8.56122 13.1222 6.27025 12 4.24799C10.8778 6.27025 10.1811 8.56122 10.0307 11ZM14.29 4.33256C15.2526 6.37407 15.8427 8.62577 15.9727 11H19.9381C19.542 7.8235 17.2836 5.22533 14.29 4.33256Z"></path></symbol><symbol viewBox="0 0 24 24" id="medium-fill"><path d="M4.00098 3H20.001C20.5533 3 21.001 3.44772 21.001 4V20C21.001 20.5523 20.5533 21 20.001 21H4.00098C3.44869 21 3.00098 20.5523 3.00098 20V4C3.00098 3.44772 3.44869 3 4.00098 3ZM17.3019 15.9403C17.2014 15.8901 17.1512 15.7394 17.1512 15.639V8.00643C17.1512 7.906 17.2014 7.75536 17.3019 7.65493L18.256 6.55021V6.5H14.8413L12.2802 12.9776L9.36765 6.5H5.85249V6.55021L6.75639 7.80557C6.95726 8.00643 7.00747 8.30771 7.00747 8.55879V14.0824C7.05769 14.3836 7.00747 14.7351 6.85682 15.0364L5.50098 16.8944V16.9446H9.11657V16.8944L7.76072 15.0866C7.61007 14.7854 7.55985 14.4841 7.61007 14.1326V9.11114C7.66029 9.21157 7.7105 9.21157 7.76072 9.41243L11.1754 17.045H11.2257L14.54 8.75964C14.4897 9.06093 14.4897 9.41243 14.4897 9.6635V15.5888C14.4897 15.7394 14.4395 15.8399 14.3391 15.9403L13.3348 16.8944V16.9446H18.256V16.8944L17.3019 15.9403Z"></path></symbol><symbol viewBox="0 0 24 24" id="double-quotes-l"><path d="M4.58341 17.3211C3.55316 16.2275 3 15 3 13.0104C3 9.51092 5.45651 6.37372 9.03059 4.82324L9.92328 6.20085C6.58804 8.00545 5.93618 10.3461 5.67564 11.8221C6.21263 11.5444 6.91558 11.4467 7.60471 11.5106C9.40908 11.6778 10.8312 13.1591 10.8312 15C10.8312 16.933 9.26416 18.5 7.33116 18.5C6.2581 18.5 5.23196 18.0096 4.58341 17.3211ZM14.5834 17.3211C13.5532 16.2275 13 15 13 13.0104C13 9.51092 15.4565 6.37372 19.0306 4.82324L19.9233 6.20085C16.588 8.00545 15.9362 10.3461 15.6756 11.8221C16.2126 11.5444 16.9156 11.4467 17.6047 11.5106C19.4091 11.6778 20.8312 13.1591 20.8312 15C20.8312 16.933 19.2642 18.5 17.3312 18.5C16.2581 18.5 15.232 18.0096 14.5834 17.3211Z"></path></symbol><symbol viewBox="0 0 24 24" id="coupon-fill"><path d="M2.00488 9.49951V3.99951C2.00488 3.44723 2.4526 2.99951 3.00488 2.99951H21.0049C21.5572 2.99951 22.0049 3.44723 22.0049 3.99951V9.49951C20.6242 9.49951 19.5049 10.6188 19.5049 11.9995C19.5049 13.3802 20.6242 14.4995 22.0049 14.4995V19.9995C22.0049 20.5518 21.5572 20.9995 21.0049 20.9995H3.00488C2.4526 20.9995 2.00488 20.5518 2.00488 19.9995V14.4995C3.38559 14.4995 4.50488 13.3802 4.50488 11.9995C4.50488 10.6188 3.38559 9.49951 2.00488 9.49951ZM9.00488 8.99951V10.9995H15.0049V8.99951H9.00488ZM9.00488 12.9995V14.9995H15.0049V12.9995H9.00488Z"></path></symbol><symbol viewBox="0 0 24 24" id="mic-fill"><path d="M11.9998 1C14.7612 1 16.9998 3.23858 16.9998 6V10C16.9998 12.7614 14.7612 15 11.9998 15C9.23833 15 6.99976 12.7614 6.99976 10V6C6.99976 3.23858 9.23833 1 11.9998 1ZM3.05469 11H5.07065C5.55588 14.3923 8.47329 17 11.9998 17C15.5262 17 18.4436 14.3923 18.9289 11H20.9448C20.4837 15.1716 17.1714 18.4839 12.9998 18.9451V23H10.9998V18.9451C6.82814 18.4839 3.51584 15.1716 3.05469 11Z"></path></symbol><symbol viewBox="0 0 24 24" id="hand-heart-fill"><path d="M9.3349 11.5021L11.5049 11.5026C13.9902 11.5026 16.0049 13.5173 16.0049 16.0026L9.00388 16.0017L9.00488 17.0026L17.0049 17.0018V16.0026C17.0049 14.9201 16.6867 13.8995 16.1188 13.0018L19.0049 13.0026C20.9972 13.0026 22.7173 14.1678 23.521 15.854C21.1562 18.9746 17.3268 21.0026 13.0049 21.0026C10.2436 21.0026 7.90437 20.4119 6.00447 19.3778L6.00592 10.0736C7.25147 10.2519 8.39122 10.7582 9.3349 11.5021ZM4.00488 9.00256C4.51772 9.00256 4.94039 9.3886 4.99816 9.88594L5.00488 10.0017V19.0026C5.00488 19.5548 4.55717 20.0026 4.00488 20.0026H2.00488C1.4526 20.0026 1.00488 19.5548 1.00488 19.0026V10.0026C1.00488 9.45027 1.4526 9.00256 2.00488 9.00256H4.00488ZM13.6513 3.57794L14.0046 3.9317L14.3584 3.57794C15.3347 2.60163 16.9177 2.60163 17.894 3.57794C18.8703 4.55425 18.8703 6.13716 17.894 7.11347L14.0049 11.0026L10.1158 7.11347C9.13948 6.13716 9.13948 4.55425 10.1158 3.57794C11.0921 2.60163 12.675 2.60163 13.6513 3.57794Z"></path></symbol><symbol viewBox="0 0 24 24" id="team-fill"><path d="M12 10C14.2091 10 16 8.20914 16 6 16 3.79086 14.2091 2 12 2 9.79086 2 8 3.79086 8 6 8 8.20914 9.79086 10 12 10ZM5.5 13C6.88071 13 8 11.8807 8 10.5 8 9.11929 6.88071 8 5.5 8 4.11929 8 3 9.11929 3 10.5 3 11.8807 4.11929 13 5.5 13ZM21 10.5C21 11.8807 19.8807 13 18.5 13 17.1193 13 16 11.8807 16 10.5 16 9.11929 17.1193 8 18.5 8 19.8807 8 21 9.11929 21 10.5ZM12 11C14.7614 11 17 13.2386 17 16V22H7V16C7 13.2386 9.23858 11 12 11ZM5 15.9999C5 15.307 5.10067 14.6376 5.28818 14.0056L5.11864 14.0204C3.36503 14.2104 2 15.6958 2 17.4999V21.9999H5V15.9999ZM22 21.9999V17.4999C22 15.6378 20.5459 14.1153 18.7118 14.0056 18.8993 14.6376 19 15.307 19 15.9999V21.9999H22Z"></path></symbol><symbol viewBox="0 0 24 24" id="map-pin-line"><path d="M12 20.8995L16.9497 15.9497C19.6834 13.2161 19.6834 8.78392 16.9497 6.05025C14.2161 3.31658 9.78392 3.31658 7.05025 6.05025C4.31658 8.78392 4.31658 13.2161 7.05025 15.9497L12 20.8995ZM12 23.7279L5.63604 17.364C2.12132 13.8492 2.12132 8.15076 5.63604 4.63604C9.15076 1.12132 14.8492 1.12132 18.364 4.63604C21.8787 8.15076 21.8787 13.8492 18.364 17.364L12 23.7279ZM12 13C13.1046 13 14 12.1046 14 11C14 9.89543 13.1046 9 12 9C10.8954 9 10 9.89543 10 11C10 12.1046 10.8954 13 12 13ZM12 15C9.79086 15 8 13.2091 8 11C8 8.79086 9.79086 7 12 7C14.2091 7 16 8.79086 16 11C16 13.2091 14.2091 15 12 15Z"></path></symbol><symbol viewBox="0 0 24 24" id="calendar-line"><path d="M9 1V3H15V1H17V3H21C21.5523 3 22 3.44772 22 4V20C22 20.5523 21.5523 21 21 21H3C2.44772 21 2 20.5523 2 20V4C2 3.44772 2.44772 3 3 3H7V1H9ZM20 11H4V19H20V11ZM7 5H4V9H20V5H17V7H15V5H9V7H7V5Z"></path></symbol><symbol viewBox="0 0 24 24" id="play-circle-fill"><path d="M12 22C6.47715 22 2 17.5228 2 12C2 6.47715 6.47715 2 12 2C17.5228 2 22 6.47715 22 12C22 17.5228 17.5228 22 12 22ZM10.6219 8.41459C10.5562 8.37078 10.479 8.34741 10.4 8.34741C10.1791 8.34741 10 8.52649 10 8.74741V15.2526C10 15.3316 10.0234 15.4088 10.0672 15.4745C10.1897 15.6583 10.4381 15.708 10.6219 15.5854L15.5008 12.3328C15.5447 12.3035 15.5824 12.2658 15.6117 12.2219C15.7343 12.0381 15.6846 11.7897 15.5008 11.6672L10.6219 8.41459Z"></path></symbol><symbol viewBox="0 0 24 24" id="arrow-right-s-line"><path d="M13.1714 12.0007L8.22168 7.05093L9.63589 5.63672L15.9999 12.0007L9.63589 18.3646L8.22168 16.9504L13.1714 12.0007Z"></path></symbol><symbol viewBox="0 0 24 24" id="creative-commons-by-line"><path d="M14 7C14 8.10461 13.1046 9 12 9 10.8954 9 10 8.10461 10 7 10 5.89539 10.8954 5 12 5 13.1046 5 14 5.89539 14 7ZM15 11C15 10.4478 14.5522 10 14 10H10C9.44775 10 9 10.4478 9 11V15H10.5V19H13.5V15H15V11ZM12 2C6.47717 2 2 6.47717 2 12 2 17.5228 6.47717 22 12 22 17.5228 22 22 17.5228 22 12 22 6.47717 17.5228 2 12 2ZM4 12C4 7.58167 7.58167 4 12 4 16.4183 4 20 7.58167 20 12 20 16.4183 16.4183 20 12 20 7.58167 20 4 16.4183 4 12Z"></path></symbol><symbol viewBox="0 0 24 24" id="arrow-right-line"><path d="M16.1716 10.9999L10.8076 5.63589L12.2218 4.22168L20 11.9999L12.2218 19.778L10.8076 18.3638L16.1716 12.9999H4V10.9999H16.1716Z"></path></symbol><symbol viewBox="0 0 24 24" id="arrow-left-line"><path d="M7.82843 10.9999H20V12.9999H7.82843L13.1924 18.3638L11.7782 19.778L4 11.9999L11.7782 4.22168L13.1924 5.63589L7.82843 10.9999Z"></path></symbol><symbol viewBox="0 0 24 24" id="check-line"><path d="M10.0007 15.1709L19.1931 5.97852L20.6073 7.39273L10.0007 17.9993L3.63672 11.6354L5.05093 10.2212L10.0007 15.1709Z"></path></symbol><symbol viewBox="0 0 24 24" id="close-line"><path d="M12.0007 10.5865L16.9504 5.63672L18.3646 7.05093L13.4149 12.0007L18.3646 16.9504L16.9504 18.3646L12.0007 13.4149L7.05093 18.3646L5.63672 16.9504L10.5865 12.0007L5.63672 7.05093L7.05093 5.63672L12.0007 10.5865Z"></path></symbol><symbol viewBox="0 0 24 24" id="twitch-fill"><path d="M21.001 3V14.7391L16.3053 19.4348H12.3923L9.95523 21.7826H6.91402V19.4348H3.00098V6.13043L4.2281 3H21.001ZM19.4358 4.56522H6.13141V16.3043H9.26185V18.6522L11.6097 16.3043H16.3053L19.4358 13.1739V4.56522ZM16.3053 7.69565V12.3913H14.7401V7.69565H16.3053ZM12.3923 7.69565V12.3913H10.8271V7.69565H12.3923Z"></path></symbol></svg>