<?xml version="1.0" encoding="UTF-8" standalone="no"?>
<!--Created with Inkscape (http://www.inkscape.org/)-->

<svg
   width="100.84132mm"
   height="52.030758mm"
   viewBox="0 0 100.84132 52.030758"
   version="1.1"
   id="svg5"
   inkscape:version="1.1.2 (0a00cf5339, 2022-02-04)"
   sodipodi:docname="wave.svg"
   xmlns:inkscape="http://www.inkscape.org/namespaces/inkscape"
   xmlns:sodipodi="http://sodipodi.sourceforge.net/DTD/sodipodi-0.dtd"
   xmlns="http://www.w3.org/2000/svg"
   xmlns:svg="http://www.w3.org/2000/svg">
  <sodipodi:namedview
     id="namedview7"
     pagecolor="#ffffff"
     bordercolor="#000000"
     borderopacity="0.25"
     inkscape:pageshadow="2"
     inkscape:pageopacity="0.0"
     inkscape:pagecheckerboard="0"
     inkscape:document-units="mm"
     showgrid="false"
     fit-margin-top="0"
     fit-margin-left="0"
     fit-margin-right="0"
     fit-margin-bottom="0"
     inkscape:zoom="0.70710678"
     inkscape:cx="390.32294"
     inkscape:cy="471.64022"
     inkscape:window-width="1551"
     inkscape:window-height="1082"
     inkscape:window-x="267"
     inkscape:window-y="265"
     inkscape:window-maximized="0"
     inkscape:current-layer="layer1" />
  <defs
     id="defs2" />
  <g
     inkscape:label="Layer 1"
     inkscape:groupmode="layer"
     id="layer1"
     transform="translate(-74.7,-50.424062)">
    <path
       style="fill:#ffffff;stroke-width:0.264583;fill-opacity:0.07"
       id="path5870"
       d="" />
    <path
       style="fill:#ffffff;stroke-width:0.264583;fill-opacity:0.07"
       id="path5850"
       d="" />
    <path
       d="m 108.16197,50.4276 c -7.82155,-0.08257 -15.704274,1.279946 -23.37273,4.105693 -1.30883,0.482291 -3.823516,1.615545 -6.009711,2.663953 -1.093098,0.524204 -3.342469,1.663425 -4.079529,2.053229 1.015893,1.526366 0,0 1.015893,1.526366 l 2.221572,-1.204063 c 9.161018,-4.964488 21.162252,-7.692499 31.854895,-7.241419 9.73073,0.410491 17.95022,2.559585 26.32605,6.884335 8.71165,4.498151 11.36534,5.733636 14.81666,6.896737 6.91231,2.32946 12.06144,3.248313 19.64531,3.505213 l 4.96094,0.167947 v -1.860868 l -4.96094,-0.145211 c -5.66734,-0.16592 -9.29725,-0.655116 -14.25959,-1.921846 -5.98949,-1.528929 -8.88415,-2.752799 -18.87947,-7.980907 -9.26795,-4.847654 -19.22306,-7.343 -29.27935,-7.449159 z"
       style="fill:#ffffff;fill-opacity:0.07;stroke-width:0.264583"
       id="path6166"
       sodipodi:nodetypes="ssscccssscccsssss" />
    <path
       d="m 108.16197,56.961446 c -7.82155,-0.08257 -15.704274,1.279946 -23.37273,4.105693 -1.30883,0.482291 -3.823516,1.615545 -6.009711,2.663953 -1.093098,0.524204 -3.342469,1.663425 -4.079529,2.053229 1.015893,1.526366 0,0 1.015893,1.526366 l 2.221572,-1.204063 c 9.161018,-4.964488 21.16225,-7.692499 31.854895,-7.241419 9.73073,0.410491 17.95022,2.559585 26.32605,6.884335 8.71165,4.498151 11.36534,5.733636 14.81666,6.896737 6.91231,2.32946 12.06144,3.248313 19.64531,3.505213 l 4.96094,0.167947 v -1.860868 l -4.96094,-0.145211 c -5.66734,-0.16592 -9.29725,-0.655116 -14.25959,-1.921846 -5.98949,-1.528929 -8.88415,-2.752799 -18.87947,-7.980907 -9.26795,-4.847654 -19.22306,-7.343 -29.27935,-7.449159 z"
       style="fill:#ffffff;fill-opacity:0.07;stroke-width:0.264583"
       id="path6166-2"
       sodipodi:nodetypes="ssscccssscccsssss" />
    <path
       d="m 108.16197,63.495292 c -7.82155,-0.08257 -15.704274,1.279946 -23.37273,4.105693 -1.30883,0.482291 -3.823516,1.615545 -6.009711,2.663953 -1.093098,0.524204 -3.342469,1.663425 -4.079529,2.053229 1.015893,1.526366 0,0 1.015893,1.526366 l 2.221572,-1.204063 c 9.161018,-4.964488 21.16225,-7.692499 31.854895,-7.241419 9.73073,0.410491 17.95022,2.559585 26.32605,6.884335 8.71165,4.498151 11.36534,5.733636 14.81665,6.896737 6.91232,2.32946 12.06145,3.248313 19.64532,3.505213 l 4.96094,0.167947 v -1.860868 l -4.96094,-0.145211 c -5.66734,-0.16592 -9.29726,-0.655116 -14.25959,-1.921846 -5.9895,-1.528929 -8.88415,-2.752799 -18.87947,-7.980907 -9.26795,-4.847654 -19.22306,-7.343 -29.27935,-7.449159 z"
       style="fill:#ffffff;fill-opacity:0.07;stroke-width:0.264583"
       id="path6166-2-0"
       sodipodi:nodetypes="ssscccssscccsssss" />
    <path
       d="m 108.16197,70.029138 c -7.82155,-0.08257 -15.704274,1.279946 -23.37273,4.105693 -1.30883,0.482291 -3.823516,1.615545 -6.009711,2.663953 -1.093098,0.524204 -3.342469,1.663425 -4.079529,2.053229 1.015893,1.526366 0,0 1.015893,1.526366 l 2.221572,-1.204063 c 9.161018,-4.964488 21.16225,-7.692499 31.854895,-7.241419 9.73073,0.410491 17.95022,2.559585 26.32605,6.884335 8.71165,4.498151 11.36534,5.733636 14.81666,6.896737 6.91231,2.32946 12.06144,3.248313 19.64531,3.505213 l 4.96094,0.167947 v -1.860868 l -4.96094,-0.145211 c -5.66734,-0.16592 -9.29725,-0.655116 -14.25959,-1.921846 -5.98949,-1.528929 -8.88415,-2.752799 -18.87947,-7.980907 -9.26795,-4.847654 -19.22306,-7.343 -29.27935,-7.449159 z"
       style="fill:#ffffff;fill-opacity:0.07;stroke-width:0.264583"
       id="path6166-2-3"
       sodipodi:nodetypes="ssscccssscccsssss" />
    <path
       d="m 108.16197,76.562984 c -7.82155,-0.08257 -15.704274,1.279946 -23.37273,4.105693 -1.30883,0.482291 -3.823516,1.615545 -6.009711,2.663953 -1.093098,0.524204 -3.342469,1.663425 -4.079529,2.053229 1.015893,1.526366 0,0 1.015893,1.526366 l 2.221572,-1.204063 c 9.161018,-4.964488 21.16225,-7.692499 31.854895,-7.241419 9.73073,0.410491 17.95022,2.559585 26.32605,6.884335 8.71165,4.498151 11.36534,5.733636 14.81665,6.896737 6.91232,2.32946 12.06145,3.248313 19.64532,3.505213 l 4.96094,0.167947 v -1.860868 l -4.96094,-0.145211 c -5.66734,-0.16592 -9.29726,-0.655116 -14.25959,-1.921846 -5.9895,-1.528929 -8.88415,-2.752799 -18.87947,-7.980907 -9.26795,-4.847654 -19.22306,-7.343 -29.27935,-7.449159 z"
       style="fill:#ffffff;fill-opacity:0.07;stroke-width:0.264583"
       id="path6166-2-0-6"
       sodipodi:nodetypes="ssscccssscccsssss" />
    <path
       d="m 108.16197,83.09683 c -7.82155,-0.08257 -15.704276,1.279946 -23.37273,4.10569 -1.30883,0.48229 -3.823516,1.61555 -6.009711,2.66396 -1.093098,0.5242 -3.342469,1.66342 -4.079529,2.05323 1.015893,1.52636 0,0 1.015893,1.52636 l 2.221572,-1.20406 c 9.161019,-4.96449 21.162249,-7.692501 31.854895,-7.241421 9.73073,0.410491 17.95022,2.559581 26.32605,6.884331 8.71165,4.49816 11.36533,5.73364 14.81664,6.89674 6.91232,2.32946 12.06145,3.24831 19.64532,3.50521 l 4.96094,0.16795 v -1.86087 l -4.96094,-0.14521 c -5.66734,-0.16592 -9.29726,-0.65511 -14.25959,-1.92184 -5.9895,-1.52893 -8.88415,-2.7528 -18.87946,-7.98091 -9.26795,-4.847655 -19.22306,-7.343001 -29.27935,-7.44916 z"
       style="fill:#ffffff;fill-opacity:0.07;stroke-width:0.264583"
       id="path6166-2-0-6-6"
       sodipodi:nodetypes="ssscccssscccsssss" />
  </g>
</svg>
