<?xml version="1.0" encoding="UTF-8" standalone="no"?>
<svg
   width="377"
   height="190"
   viewBox="0 0 377 190"
   fill="none"
   version="1.1"
   id="svg18"
   sodipodi:docname="dune.svg"
   inkscape:version="1.1.2 (0a00cf5339, 2022-02-04)"
   xmlns:inkscape="http://www.inkscape.org/namespaces/inkscape"
   xmlns:sodipodi="http://sodipodi.sourceforge.net/DTD/sodipodi-0.dtd"
   xmlns="http://www.w3.org/2000/svg"
   xmlns:svg="http://www.w3.org/2000/svg">
  <defs
     id="defs22" />
  <sodipodi:namedview
     id="namedview20"
     pagecolor="#ffffff"
     bordercolor="#000000"
     borderopacity="0.25"
     inkscape:pageshadow="2"
     inkscape:pageopacity="0.0"
     inkscape:pagecheckerboard="0"
     showgrid="false"
     inkscape:zoom="3.5490716"
     inkscape:cx="188.35912"
     inkscape:cy="94.95441"
     inkscape:window-width="2560"
     inkscape:window-height="1363"
     inkscape:window-x="0"
     inkscape:window-y="0"
     inkscape:window-maximized="1"
     inkscape:current-layer="svg18" />
  <path
     d="M50.7822 56.3927C53.9822 57.8494 57.0031 60.8917 58.6267 65.6359C62.9979 78.4094 76.9669 87.1135 89.0721 80.4989C93.8682 77.8782 102.143 80.7113 105.261 89.8243C109.632 102.598 123.601 111.302 135.707 104.687C136.943 104.012 138.41 103.699 139.961 103.762V112.849C135.304 111.375 130.232 111.598 125.451 114.211C120.655 116.831 112.38 113.998 109.262 104.885C104.89 92.1119 90.9213 83.4078 78.8161 90.0224C74.02 92.6431 65.7456 89.81 62.6271 80.697C60.5045 74.4943 56.1187 69.2512 50.7822 66.2557V56.3927Z"
     fill="#FF9B10"
     id="path2"
     style="fill:#000000;fill-opacity:1" />
  <path
     d="M59.3031 50C63.2341 53.0752 66.3874 57.4287 68.088 62.3981C71.2066 71.5111 79.481 74.3442 84.277 71.7236C96.3822 65.1089 110.351 73.8131 114.722 86.5866C117.841 95.6996 126.115 98.5327 130.912 95.912C133.872 94.2941 136.945 93.5927 139.961 93.6431V50H59.3031Z"
     fill="#FF9B10"
     id="path4"
     style="fill:#000000;fill-opacity:1" />
  <path
     d="M50.7822 79.2653V88.8986C53.5071 91.6926 55.6786 95.1547 56.9884 98.9821C60.107 108.095 68.3814 110.928 73.1774 108.308C85.2826 101.693 99.2517 110.397 103.623 123.171C106.741 132.284 115.016 135.117 119.812 132.496C126.618 128.777 134.013 129.9 139.961 133.867V123.798C136.634 121.757 132.905 121.533 130.246 122.986C118.14 129.601 104.171 120.897 99.8002 108.123C96.6816 99.0102 88.4072 96.1771 83.6112 98.7977C71.506 105.412 57.5369 96.7082 53.1657 83.9347C52.55 82.1356 51.7334 80.5812 50.7822 79.2653Z"
     fill="#FF9B10"
     id="path6"
     style="fill:#000000;fill-opacity:1" />
  <path
     d="M103.434 139.178C99.2765 136.087 95.9319 131.582 94.1615 126.408C91.043 117.295 82.7686 114.462 77.9725 117.083C68.0617 122.498 56.9016 117.646 50.7822 108.698V139.178H103.434Z"
     fill="#FF9B10"
     id="path8"
     style="fill:#000000;fill-opacity:1" />
  <path
     fill-rule="evenodd"
     clip-rule="evenodd"
     d="M178.073 69C182.633 69 186.616 69.668 190.023 71.0034C193.432 72.3389 196.264 74.1807 198.521 76.5293C200.776 78.832 202.458 81.48 203.562 84.4731C204.714 87.4209 205.29 90.4829 205.29 93.6606V95.1802C205.29 98.2197 204.714 101.213 203.562 104.161C202.458 107.108 200.776 109.779 198.521 112.173C196.264 114.568 193.432 116.479 190.023 117.907C186.616 119.334 182.633 120.048 178.073 120.048H159.837V69H178.073ZM178.695 110.93H169.646V78.1182H178.695C181.32 78.1182 183.646 78.4868 185.672 79.2236C187.744 79.9604 189.494 81.0425 190.922 82.4702C192.35 83.8979 193.432 85.6245 194.168 87.6509C194.951 89.6313 195.343 91.8877 195.343 94.4204C195.343 96.8613 194.951 99.0947 194.168 101.121C193.432 103.101 192.35 104.828 190.922 106.302C189.494 107.775 187.744 108.927 185.672 109.756C183.646 110.539 181.32 110.93 178.695 110.93Z"
     fill="black"
     id="path10"
     style="fill:#000000;fill-opacity:1" />
  <path
     d="M212.554 116.664C214.948 119.519 218.311 120.946 222.639 120.946H223.054C225.955 120.946 228.373 120.302 230.307 119.012C232.241 117.723 233.691 115.812 234.658 113.279C234.926 112.579 235.156 111.831 235.35 111.036V119.772H242.948V82.1938H233.346V104.368C233.346 106.809 232.633 108.743 231.205 110.17C229.823 111.598 228.027 112.312 225.816 112.312C223.606 112.312 221.856 111.644 220.566 110.308C219.277 108.927 218.633 107.084 218.633 104.782V82.1938H209.031V103.953C209.031 109.571 210.205 113.808 212.554 116.664Z"
     fill="black"
     id="path12"
     style="fill:#000000;fill-opacity:1" />
  <path
     d="M250.523 119.772V82.2627H258.122V91.5078C258.345 90.5449 258.621 89.6509 258.951 88.8252C259.965 86.2466 261.461 84.312 263.441 83.0229C265.468 81.7334 267.978 81.0884 270.971 81.0884H271.385C275.853 81.0884 279.237 82.5391 281.54 85.4404C283.842 88.2954 284.993 92.5786 284.993 98.2891V119.772H275.392V97.46C275.392 95.1572 274.724 93.2925 273.389 91.8647C272.099 90.437 270.303 89.7231 268 89.7231C265.651 89.7231 263.74 90.46 262.267 91.9336C260.839 93.3613 260.126 95.2954 260.126 97.7363V119.772H250.523Z"
     fill="black"
     id="path14"
     style="fill:#000000;fill-opacity:1" />
  <path
     fill-rule="evenodd"
     clip-rule="evenodd"
     d="M300.151 119.427C302.593 120.532 305.425 121.084 308.648 121.084C311.733 121.084 314.474 120.555 316.868 119.496C319.31 118.437 321.312 116.94 322.878 115.005C324.444 113.071 325.503 110.815 326.056 108.236H317.214C316.799 109.618 315.855 110.792 314.382 111.759C312.908 112.68 310.997 113.141 308.648 113.141C306.3 113.141 304.365 112.634 302.846 111.621C301.326 110.562 300.197 109.134 299.461 107.338C298.971 106.114 298.644 104.779 298.479 103.332H326.678V99.8774C326.678 96.562 325.986 93.4766 324.605 90.6211C323.224 87.7202 321.151 85.3945 318.388 83.6445C315.671 81.8486 312.286 80.9502 308.233 80.9502C305.148 80.9502 302.432 81.5029 300.083 82.6084C297.734 83.6675 295.754 85.1182 294.142 86.96C292.576 88.7563 291.379 90.8286 290.55 93.1772C289.767 95.4795 289.376 97.8745 289.376 100.361V101.674C289.376 104.068 289.767 106.417 290.55 108.72C291.379 111.022 292.576 113.118 294.142 115.005C295.754 116.848 297.757 118.321 300.151 119.427ZM298.644 97.46C298.828 96.4048 299.101 95.4375 299.461 94.5586C299.885 93.562 300.409 92.6938 301.035 91.9531C301.565 91.3247 302.169 90.7886 302.846 90.3447C304.319 89.3779 306.115 88.8945 308.233 88.8945C310.352 88.8945 312.102 89.355 313.483 90.2759C314.911 91.1968 315.971 92.5093 316.661 94.2134C316.835 94.6426 316.987 95.0938 317.117 95.5669C317.181 95.7959 317.238 96.0298 317.291 96.269C317.376 96.6528 317.447 97.0498 317.505 97.46H298.644Z"
     fill="black"
     id="path16"
     style="fill:#000000;fill-opacity:1" />
</svg>
