<?xml version="1.0" encoding="UTF-8" standalone="no"?>
<!-- Created with Inkscape (http://www.inkscape.org/) -->

<svg
   width="165.62917mm"
   height="100.91994mm"
   viewBox="0 0 165.62917 100.91994"
   version="1.1"
   id="svg5"
   inkscape:version="1.1.2 (0a00cf5339, 2022-02-04)"
   sodipodi:docname="massive-dynamic.svg"
   xmlns:inkscape="http://www.inkscape.org/namespaces/inkscape"
   xmlns:sodipodi="http://sodipodi.sourceforge.net/DTD/sodipodi-0.dtd"
   xmlns="http://www.w3.org/2000/svg"
   xmlns:svg="http://www.w3.org/2000/svg">
  <sodipodi:namedview
     id="namedview7"
     pagecolor="#ffffff"
     bordercolor="#000000"
     borderopacity="0.25"
     inkscape:pageshadow="2"
     inkscape:pageopacity="0.0"
     inkscape:pagecheckerboard="0"
     inkscape:document-units="mm"
     showgrid="false"
     fit-margin-top="0"
     fit-margin-left="0"
     fit-margin-right="0"
     fit-margin-bottom="0"
     inkscape:zoom="1.5554293"
     inkscape:cx="157.83424"
     inkscape:cy="68.148389"
     inkscape:window-width="2560"
     inkscape:window-height="1363"
     inkscape:window-x="0"
     inkscape:window-y="0"
     inkscape:window-maximized="1"
     inkscape:current-layer="layer1" />
  <defs
     id="defs2" />
  <g
     inkscape:label="Layer 1"
     inkscape:groupmode="layer"
     id="layer1"
     transform="translate(-15.82054,-165.95068)">
    <path
       style="fill:#000000;stroke-width:0.264583"
       d="m 174.73585,266.57886 c -2.93207,-1.09109 -4.29953,-4.60055 -3.21526,-8.25166 0.44252,-1.49013 1.62245,-2.7814 3.10761,-3.40084 1.27228,-0.53066 4.00922,-0.52504 5.58376,0.0115 l 1.23775,0.42174 v 1.43034 c 0,0.78669 -0.0613,1.43034 -0.1363,1.43034 -0.075,0 -0.7692,-0.35719 -1.54274,-0.79375 -1.63568,-0.92312 -2.61887,-0.99439 -3.79821,-0.2753 -1.12405,0.68537 -1.6665,1.80694 -1.6665,3.44566 0,2.05444 0.5547,3.10365 1.97238,3.73075 0.99762,0.4413 1.36716,0.48331 2.22335,0.25276 0.56477,-0.15207 1.32907,-0.51422 1.69845,-0.80477 1.02935,-0.80969 1.24957,-0.66726 1.24957,0.80815 0,1.29299 -0.0322,1.35011 -0.99218,1.75787 -1.38155,0.58686 -4.44125,0.71372 -5.72168,0.23725 z M 15.82054,260.73378 v -5.95312 h 3.26781 c 4.580826,0 6.161962,0.65977 7.321512,3.05508 0.742223,1.53323 0.803402,4.09197 0.129756,5.42692 -1.334914,2.64535 -3.091943,3.42425 -7.724391,3.42425 H 15.82054 Z m 6.354129,3.351 c 1.660876,-0.87458 2.311708,-3.18412 1.467002,-5.20578 -0.528319,-1.26445 -1.79961,-1.97946 -3.521651,-1.98068 l -1.389063,-9.9e-4 v 3.66006 c 0,2.01304 0.07937,3.73945 0.176389,3.83646 0.354229,0.35423 2.369749,0.16358 3.267323,-0.30907 z m 23.543789,0.36372 v -2.23841 l -2.116667,-3.59297 c -1.164166,-1.97614 -2.116666,-3.64776 -2.116666,-3.71472 0,-0.067 0.746805,-0.12174 1.659564,-0.12174 h 1.659565 l 1.184706,2.23421 c 0.65159,1.22882 1.264907,2.15155 1.362933,2.05052 0.09802,-0.10103 0.673912,-1.10642 1.279752,-2.23421 l 1.101529,-2.05052 h 1.564519 c 0.860483,0 1.564515,0.0669 1.564515,0.14872 0,0.0818 -0.9525,1.74853 -2.116666,3.70385 l -2.116667,3.55512 v 2.24928 2.24928 h -1.455208 -1.455209 z m 22.225001,-3.72631 v -5.96471 l 1.909771,0.0777 1.909773,0.0777 1.992831,3.23085 c 1.09606,1.77696 2.082131,3.23548 2.191271,3.24114 0.109141,0.006 0.198438,-1.47798 0.198438,-3.29699 v -3.30729 h 1.322916 1.322917 v 5.95312 5.95313 l -1.521354,-0.009 -1.521354,-0.01 -2.38125,-3.95902 c -1.309688,-2.17746 -2.470547,-3.95912 -2.579688,-3.95924 -0.109141,-1.4e-4 -0.198437,1.7857 -0.198437,3.96851 v 3.96875 h -1.322917 -1.322917 z m 25.92917,5.75361 c 0,-0.11612 0.93214,-2.76526 2.07142,-5.88698 l 2.07142,-5.67587 1.83118,-0.0716 1.831191,-0.0716 2.1457,5.95856 2.14571,5.95857 h -1.52851 -1.52851 l -0.45842,-1.20035 -0.45842,-1.20034 -2.254091,0.0759 -2.25409,0.0759 -0.37413,1.12448 -0.37413,1.12448 h -1.43316 c -0.78824,0 -1.43316,-0.095 -1.43316,-0.21111 z m 7.343061,-4.61754 c -0.067,-0.1819 -0.39066,-1.14498 -0.71916,-2.14018 -0.32851,-0.9952 -0.687511,-1.70958 -0.797791,-1.5875 -0.20872,0.23106 -1.3282,3.47198 -1.3282,3.8452 0,0.11727 0.66759,0.21321 1.48352,0.21321 1.075431,0 1.449991,-0.091 1.361631,-0.33073 z m 19.64444,-1.13607 v -5.96471 l 1.87158,0.0777 1.87158,0.0777 1.22674,2.84158 c 0.6747,1.56287 1.31128,2.75349 1.41461,2.64583 0.10333,-0.10766 0.71173,-1.38637 1.352,-2.84158 l 1.16414,-2.64583 1.76738,-0.0782 1.76739,-0.0782 v 5.96522 5.96521 h -1.44814 -1.44813 l -0.0732,-3.9026 -0.0732,-3.90261 -1.02987,2.4474 -1.02987,2.44739 h -1.1009 -1.1009 l -0.88014,-2.18281 c -0.48408,-1.20055 -0.98375,-2.29592 -1.11038,-2.43417 -0.13155,-0.14361 -0.23023,1.41579 -0.23023,3.63802 v 3.88938 h -1.45521 -1.45521 z m 28.31042,4.90639 c 0,-1.03314 0.022,-1.05834 0.92604,-1.05834 h 0.92604 v -3.96875 -3.96875 h -0.92604 c -0.88195,0 -0.92604,-0.0441 -0.92604,-0.92604 v -0.92604 h 3.43958 3.43958 v 0.92604 c 0,0.88194 -0.0441,0.92604 -0.92604,0.92604 h -0.92604 v 3.96875 3.96875 h 0.92604 c 0.904,0 0.92604,0.0252 0.92604,1.05834 v 1.05833 h -3.43958 -3.43958 z M 73.963233,246.56344 c -2.345648,-0.35518 -2.58019,-0.55499 -2.58019,-2.19802 v -1.40079 l 1.58669,0.78644 c 2.436971,1.20788 5.55706,1.01097 5.55706,-0.3507 0,-0.70131 -0.889625,-1.21068 -2.778125,-1.59069 -3.037467,-0.6112 -4.366898,-1.75365 -4.364636,-3.75078 0.0026,-2.26006 2.171666,-3.72291 5.512274,-3.7175 1.115049,0.002 2.533378,0.14112 3.151841,0.30959 l 1.124479,0.30632 v 1.43409 1.43409 l -1.338733,-0.67241 c -1.783091,-0.89559 -4.007951,-0.95583 -4.832938,-0.13084 -0.905999,0.906 -0.34612,1.40002 2.331011,2.0568 3.438311,0.84353 4.493943,1.83452 4.278437,4.01646 -0.266369,2.69695 -3.388468,4.1128 -7.64717,3.46794 z m 25.597936,0.0156 c -0.7276,-0.1146 -1.65034,-0.33723 -2.05052,-0.49474 -0.66977,-0.2636 -0.72761,-0.40102 -0.72761,-1.72895 v -1.44259 l 1.53909,0.79377 c 2.519651,1.29949 5.604661,1.07247 5.604661,-0.41243 0,-0.68919 -0.6078,-1.0176 -2.73609,-1.47834 -3.081101,-0.66702 -4.244841,-1.68412 -4.244841,-3.70995 0,-1.13927 0.12146,-1.44421 0.89171,-2.23891 0.49043,-0.506 1.317,-1.06044 1.83682,-1.23209 1.187441,-0.3921 4.293071,-0.38225 5.773761,0.0183 l 1.12448,0.3042 v 1.40455 1.40456 l -1.3251,-0.65579 c -1.76298,-0.87248 -4.12721,-0.90461 -4.80683,-0.0653 -0.830131,1.02516 -0.23796,1.49594 2.69234,2.14045 0.80037,0.17604 1.77212,0.48031 2.15945,0.67615 2.58861,1.30887 2.36163,4.99281 -0.38056,6.17679 -1.37428,0.59336 -3.59214,0.81732 -5.350761,0.54032 z M 15.82054,240.48159 v -6.09701 l 1.85988,0.0777 1.859879,0.0777 1.365443,3.01454 1.365443,3.01453 0.481151,-1.03016 c 0.264632,-0.56658 0.893825,-1.95289 1.398206,-3.08068 l 0.917056,-2.05052 h 1.726471 1.726472 v 6.08542 6.08542 h -1.448317 -1.448317 l -0.07304,-4.02549 -0.07304,-4.0255 -1.069521,2.50414 -1.069521,2.50414 h -1.134326 -1.134332 l -0.984173,-2.30608 c -0.541295,-1.26835 -1.067609,-2.38952 -1.169585,-2.4915 -0.101977,-0.10197 -0.185412,1.62037 -0.185412,3.82744 v 4.01285 H 17.275749 15.82054 Z m 28.354495,5.76543 c 0.04852,-0.19762 1.040715,-2.9451 2.204882,-6.10552 l 2.116666,-5.74623 1.821961,0.0724 1.821961,0.0724 2.077307,5.55625 c 1.142518,3.05594 2.146363,5.76461 2.230766,6.01928 0.134725,0.4065 -0.03991,0.46302 -1.430611,0.46302 h -1.584065 l -0.442704,-1.33286 -0.442706,-1.33286 -2.283711,0.0761 -2.283715,0.0761 -0.437919,1.19063 -0.43792,1.19062 -1.509205,0.08 c -1.166558,0.0618 -1.489175,-0.002 -1.420987,-0.27929 z m 6.888335,-6.54516 c -0.381214,-1.16282 -0.771665,-2.02602 -0.867667,-1.91823 -0.190643,0.21408 -1.302245,3.47421 -1.302245,3.81926 0,0.11726 0.644181,0.21321 1.431513,0.21321 h 1.431512 z m 71.38426,5.8184 c 0,-1.03313 0.022,-1.05833 0.92604,-1.05833 h 0.92604 v -3.96875 -3.96875 h -0.92604 c -0.90399,0 -0.92604,-0.0252 -0.92604,-1.05833 v -1.05834 h 3.43958 3.43959 v 1.05834 c 0,1.03313 -0.022,1.05833 -0.92605,1.05833 h -0.92604 v 3.96875 3.96875 h 0.92604 c 0.904,0 0.92605,0.0252 0.92605,1.05833 v 1.05834 h -3.43959 -3.43958 z m 24.12465,-4.8289 c -1.19033,-3.23798 -2.16423,-5.97642 -2.16423,-6.08542 0,-0.109 0.70004,-0.19818 1.55564,-0.19818 h 1.55565 l 1.40354,4.10104 c 0.77194,2.25558 1.48631,4.10105 1.5875,4.10105 0.10118,0 0.81555,-1.84547 1.5875,-4.10105 l 1.40353,-4.10104 h 1.56704 c 1.14013,0 1.53493,0.0901 1.44914,0.33073 -0.0648,0.1819 -1.05985,2.91941 -2.21112,6.08334 l -2.09321,5.75262 -1.73838,0.002 -1.73837,0.002 -2.16423,-5.88723 z m 25.35243,-0.19818 v -6.08542 h 4.36563 4.36562 v 1.19063 1.19062 h -2.77812 -2.77813 v 1.05834 1.05833 h 2.64584 2.64583 v 1.05833 1.05834 h -2.64583 -2.64584 v 1.5875 1.5875 h 2.77813 2.77812 v 1.19062 1.19063 h -4.36562 -4.36563 z M 98.635129,204.11921 v -21.26417 l -0.8599,-0.27415 -15.099695,-4.00023 -3.618757,9.55459 -3.288363,9.55458 -3.862094,-11.58621 -4.243205,-11.79219 -6.995698,-1.96424 -6.942431,-1.93849 6.682698,-2.31912 7.010548,-2.1389 7.993505,2.22599 8.170061,2.51167 1.04177,3.56981 1.080945,3.41747 6.621086,-1.61957 6.40535,-1.7529 7.279801,2.07261 7.72921,2.46949 3.69467,9.86648 3.43534,9.26042 7.65078,-23.19615 -7.00422,-1.61097 -7.36476,-1.68021 6.87916,-2.50665 7.63441,-2.31055 14.51752,3.9316 0.16685,21.57672 v 21.00361 l -5.22552,1.25661 -5.55625,1.38199 -0.33877,-10.42012 -0.2272,-10.14862 -3.34372,11.37709 -3.31121,11.19809 -8.02001,2.07694 -3.37652,-9.96774 -3.27684,-9.78958 -0.13229,10.81333 -0.13229,10.81333 -4.63021,1.42767 -5.886981,1.80626 -1.25677,0.37859 z m -18.886152,15.27343 3.775375,-11.97239 2.373548,-7.01146 -0.04753,8.54913 -0.04753,8.54914 -3.027127,1.30659 -3.113895,1.3066 0.08716,-0.72761 z m -15.102398,-10.18646 -0.09602,-10.0914 0.08561,-3.41068 2.711363,9.47466 2.611856,9.57417 -4.780939,1.13398 -0.531868,-6.68073 z"
       id="path854"
       sodipodi:nodetypes="sssscssssssssssssccssssccssscsssccssscssscsssccccccccccscscccccccsssccccsscccccccccccccsssssssssccccssscccccccccccccsssccccsscccsscccsscccsscccssscsssscscccsssssssscssssssscccssssssccccccsscccccccccccccsssccccsscccssscccccccssssssscssscccsscccsscccsscccscsscssscssscccccccccccccccccccccccccccccccccccccccccccccccccccccccccccccccccccccccccccccccccccccccccccc" />
  </g>
</svg>
