<?xml version="1.0" encoding="UTF-8" standalone="no"?>
<!-- Created with Inkscape (http://www.inkscape.org/) -->

<svg
   width="102.08466mm"
   height="52.046463mm"
   viewBox="0 0 102.08466 52.046463"
   version="1.1"
   id="svg5"
   inkscape:version="1.1.2 (0a00cf5339, 2022-02-04)"
   sodipodi:docname="natures-way.svg"
   xmlns:inkscape="http://www.inkscape.org/namespaces/inkscape"
   xmlns:sodipodi="http://sodipodi.sourceforge.net/DTD/sodipodi-0.dtd"
   xmlns="http://www.w3.org/2000/svg"
   xmlns:svg="http://www.w3.org/2000/svg">
  <sodipodi:namedview
     id="namedview7"
     pagecolor="#ffffff"
     bordercolor="#000000"
     borderopacity="0.25"
     inkscape:pageshadow="2"
     inkscape:pageopacity="0.0"
     inkscape:pagecheckerboard="0"
     inkscape:document-units="mm"
     showgrid="false"
     inkscape:zoom="0.77771465"
     inkscape:cx="4.5003653"
     inkscape:cy="288.02338"
     inkscape:window-width="2560"
     inkscape:window-height="1363"
     inkscape:window-x="0"
     inkscape:window-y="0"
     inkscape:window-maximized="1"
     inkscape:current-layer="layer1"
     fit-margin-top="0"
     fit-margin-left="0"
     fit-margin-right="0"
     fit-margin-bottom="0" />
  <defs
     id="defs2" />
  <g
     inkscape:label="Layer 1"
     inkscape:groupmode="layer"
     id="layer1"
     transform="translate(-53.664188,-129.3647)">
    <path
       style="fill:#000000;stroke-width:0.134725"
       d="m 146.99344,181.30667 c -0.27869,-0.0541 -0.53371,-0.12528 -0.56672,-0.15829 -0.13719,-0.13718 0.31268,-1.25989 0.48718,-1.21585 0.10014,0.0253 0.4852,0.0765 0.8557,0.11391 0.96404,0.0973 1.4704,-0.27929 2.12184,-1.57791 0.27783,-0.55385 0.50522,-1.29771 0.50522,-1.29771 l -3.46763,-9.60782 h 1.64892 l 2.75696,7.26934 2.77787,-7.26934 h 1.63606 c 0,0 -2.65392,7.66175 -4.67779,11.85049 -0.84239,1.65123 -2.16296,2.26429 -4.07761,1.89299 z m -79.995624,-3.54811 c -0.746381,-0.21155 -1.123492,-0.46644 -1.554524,-1.05067 -1.272512,-1.72479 -0.443662,-4.29541 1.579885,-4.8999 0.520272,-0.15542 3.59313,-0.61117 4.12075,-0.61117 0.0914,0 0.0179,-0.68097 -0.11438,-1.06055 -0.17438,-0.50021 -0.49909,-0.70417 -1.33308,-0.83735 -0.820524,-0.13103 -1.836072,0.0763 -2.370519,0.48393 -0.242402,0.18489 -0.471589,0.33617 -0.509302,0.33617 -0.03772,0 -0.469176,-0.25118 -0.958804,-0.55818 l -0.890233,-0.55817 0.377232,-0.39747 c 1.561064,-1.64477 5.986096,-1.76574 7.455666,-0.20381 0.6818,0.72465 0.71963,0.98161 0.77351,5.25416 l 0.0506,4.00807 h -1.1557 -1.1557 v -0.56239 -0.56238 l -0.30314,0.28285 c -0.92868,0.86657 -2.755366,1.2931 -4.012211,0.93686 z m 3.304911,-2.31177 0.80835,-0.43354 0.0395,-1.04163 0.0395,-1.04164 -0.64577,0.0815 c -0.35518,0.0448 -0.91717,0.11536 -1.248877,0.15669 -0.729088,0.0908 -1.559919,0.49409 -1.750082,0.84941 -0.194478,0.36338 -0.173776,1.25693 0.03576,1.54348 0.208563,0.28523 0.946533,0.47272 1.509073,0.38339 0.222296,-0.0353 0.767936,-0.25926 1.212526,-0.4977 z m 7.95743,2.33493 c -0.29163,-0.0684 -0.7376,-0.28245 -0.99105,-0.47577 -0.82613,-0.63012 -0.8961,-0.95863 -0.97112,-4.5598 l -0.0674,-3.2334 -1.27989,-0.0822 v -1.87138 h 1.34725 v -2.82923 h 2.42505 v 2.82923 h 2.29032 v 1.88615 h -2.29032 v 2.90271 c 0,2.90225 5e-5,2.90276 0.33069,3.23339 0.35739,0.3574 0.89496,0.42405 1.6572,0.20544 0.48374,-0.13874 0.42033,-0.23874 0.71016,1.1199 0.0772,0.3618 0.10854,0.68961 0.0697,0.72847 -0.25645,0.25645 -2.35532,0.35158 -3.23061,0.14642 z m 6.66515,0.002 c -0.72185,-0.22002 -1.16564,-0.60217 -1.50901,-1.2994 -0.30581,-0.62097 -0.3159,-0.75595 -0.35715,-4.7818 l -0.0425,-4.1428 h 2.4426 l 8.1e-4,3.40181 c 4e-4,1.92515 0.0612,3.61939 0.13996,3.90305 0.16372,0.5895 0.56757,0.91389 1.13547,0.91206 0.53643,-0.002 1.6477,-0.52708 2.26916,-1.07273 l 0.49635,-0.43584 c 0,-2.23611 0,-4.47223 0,-6.70834 h 2.42505 c 0,3.36813 0,6.73625 0,10.10438 h -2.42505 v -0.60626 c 0,-0.33345 -0.0339,-0.60627 -0.0753,-0.60627 -0.0414,0 -0.29906,0.17912 -0.57258,0.39804 -1.0664,0.85349 -2.82232,1.27108 -3.92789,0.9341 z m 20.338553,-0.0375 c -2.46981,-0.54914 -3.48856,-2.24547 -3.33702,-5.55656 0.11175,-2.44185 0.79702,-3.69724 2.4191,-4.4317 0.73784,-0.33409 1.02018,-0.38613 2.13045,-0.39272 2.12127,-0.0126 3.31005,0.62148 4.02773,2.14829 0.31462,0.66931 0.66686,3.21339 0.50377,3.6384 -0.0655,0.17061 -0.57747,0.20098 -3.38822,0.20098 h -3.31109 l 0.0887,0.50521 c 0.21233,1.20991 0.85057,1.78273 2.09663,1.88172 1.04507,0.083 1.84854,-0.1165 2.26821,-0.56322 l 0.31464,-0.33492 0.68703,0.49068 c 1.10451,0.78885 1.09939,0.78174 0.84354,1.17222 -0.72554,1.10731 -3.27898,1.70064 -5.34343,1.24162 z m 3.29836,-6.71732 c -0.20066,-1.2295 -0.86206,-1.7775 -2.12237,-1.75849 -1.02439,0.0155 -1.70941,0.66628 -1.92179,1.82585 l -0.0925,0.50522 h 4.23014 z m 6.67129,6.71208 c -0.40754,-0.0935 -0.90454,-0.23727 -1.10444,-0.31951 -0.37896,-0.1559 -1.45533,-1.06603 -1.45533,-1.23057 0,-0.052 0.38856,-0.37413 0.86346,-0.71577 l 0.86347,-0.62116 0.24802,0.27893 c 0.80319,0.90334 3.24544,1.0594 3.68634,0.23557 0.41643,-0.77811 0.0197,-1.11879 -1.98567,-1.70539 -2.65708,-0.7772 -3.47049,-1.54459 -3.47049,-3.27412 0,-1.83461 1.12204,-2.83499 3.41923,-3.04849 1.04713,-0.0973 2.2425,0.11721 3.11189,0.55849 0.7118,0.36129 1.27547,0.9212 1.17742,1.16957 -0.038,0.0964 -0.43743,0.43335 -0.88751,0.74879 -0.76809,0.53831 -0.82678,0.55773 -0.95601,0.31625 -0.0757,-0.1415 -0.41491,-0.39147 -0.75373,-0.55549 -0.48621,-0.23537 -0.78378,-0.28609 -1.41185,-0.24066 -0.92278,0.0667 -1.3448,0.36003 -1.3448,0.93458 0,0.51308 0.36149,0.72718 2.04849,1.21326 0.76285,0.2198 1.642,0.52187 1.95366,0.67126 1.1619,0.55693 1.7677,1.69615 1.59485,2.99915 -0.10552,0.79541 -0.32277,1.24201 -0.83591,1.71839 -1.01854,0.94556 -2.91395,1.29069 -4.76109,0.86692 z m 23.50951,-0.01 c -0.70979,-0.25109 -1.49045,-1.09939 -1.68847,-1.8348 -0.0867,-0.32209 -0.13429,-0.953 -0.1057,-1.40203 0.11612,-1.82363 1.26292,-2.75086 3.74769,-3.03017 0.70393,-0.0791 1.53754,-0.17524 1.85246,-0.21359 l 0.57259,-0.0697 V 170.589 c 0,-1.2876 -0.71442,-1.84681 -2.35941,-1.84681 -1.03974,0 -1.53587,0.17959 -2.06698,0.74818 l -0.31727,0.33967 -0.6657,-0.40961 c -0.62643,-0.38545 -0.65457,-0.42659 -0.47701,-0.69736 0.87451,-1.33357 4.03459,-1.85732 5.94081,-0.98462 1.44595,0.66198 1.56054,1.10614 1.5615,6.05219 l 7.6e-4,3.87334 h -0.80097 -0.80097 l -0.0411,-0.61002 -0.0411,-0.61002 -0.71819,0.54067 c -1.16159,0.87447 -2.46529,1.14528 -3.59301,0.74636 z m 3.43336,-2.0096 0.94521,-0.64583 v -1.28297 -1.28297 l -0.97676,0.0893 c -2.2002,0.20126 -3.07133,0.54836 -3.40991,1.35871 -0.25689,0.61482 -0.24448,1.11239 0.042,1.68358 0.3188,0.63561 0.74486,0.83164 1.68172,0.77372 0.66135,-0.0409 0.90858,-0.1407 1.71775,-0.69358 z m -88.512191,-8.16214 h 2.42505 c -0.01499,0.39817 7.93e-4,0.85265 0.06705,1.21253 0.03688,0 0.355165,-0.2059 0.707306,-0.45755 1.696046,-1.21204 3.708256,-1.33759 4.808392,-0.30003 0.791823,0.74678 0.88405,1.3484 0.88405,5.76685 v 3.88258 h -2.42505 v -3.50718 c 0,-3.7254 -0.076,-4.25649 -0.653362,-4.56548 -0.635645,-0.34019 -1.743469,0.007 -2.808065,0.87891 l -0.580322,0.47553 v 6.71822 h -2.42505 z m 40.956398,0 h 2.42505 v 0.60626 c 0,0.63643 0.11823,0.74872 0.41361,0.39281 0.65716,-0.79183 2.20912,-1.38779 3.152903,-1.21074 0.50397,0.0945 0.50631,0.098 0.42156,0.62802 -0.0469,0.29313 -0.14655,0.81953 -0.2215,1.16978 l -0.13627,0.63683 -0.857763,-0.0445 c -0.93475,-0.0485 -1.36493,0.10615 -2.26732,0.81531 l -0.50522,0.39704 v 6.71361 h -2.42505 z m 30.204493,10.10747 -2.45114,-10.10371 h 1.59256 l 1.76889,7.4776 2.36436,-7.4776 h 1.34725 l 2.45526,7.48822 1.68753,-7.48822 h 1.52581 l -2.4352,10.10028 -1.49675,5.4e-4 -2.48291,-7.57788 -1.74436,5.3886 -0.69225,2.18928 z M 57.078625,160.41652 c -1.292396,-0.26327 -2.481215,-1.26805 -2.955593,-2.49802 -0.24284,-0.62964 -0.256756,-1.12939 -0.256756,-9.22076 0,-8.10952 0.01346,-8.58992 0.258326,-9.22487 0.33938,-0.88 1.263055,-1.85035 2.137925,-2.24595 0.674947,-0.30519 0.849146,-0.31931 4.453169,-0.3609 3.576821,-0.0413 3.747221,-0.0319 3.674725,0.20209 -0.27385,0.88391 -0.517807,2.49146 -0.584154,3.84926 l -0.07735,1.58302 c -1.378943,0 -2.757885,0 -4.136828,0 0,4.13157 0,8.26313 0,12.3947 4.086659,0 8.173319,0 12.259978,0 0,-1.21253 0,-2.42505 0,-3.63758 l 0.97675,-0.003 c 1.05131,-0.003 3.52978,-0.30711 4.24384,-0.52102 l 0.43786,-0.13116 -1.1e-4,3.3924 -1.1e-4,3.3924 -0.383,0.80958 c -0.4267,0.90197 -1.114,1.57927 -2.03499,2.00541 -0.60094,0.27806 -0.78018,0.28413 -9.033418,0.30589 -4.631172,0.0122 -8.672289,-0.0291 -8.980263,-0.0919 z m 14.301902,-10.18349 c -1.07182,-0.10554 -2.694754,-0.34865 -2.812253,-0.42127 -0.06609,-0.0409 0.357752,-0.26823 0.941873,-0.50531 3.35681,-1.36243 5.9461,-3.18675 7.84339,-5.52617 0.48075,-0.59279 1.00072,-1.13399 1.15548,-1.20266 0.53906,-0.2392 5.01135,-0.16729 6.44505,0.10363 0.72246,0.13652 1.31357,0.2839 1.31357,0.32751 0,0.21819 -1.61096,2.13875 -2.52825,3.01413 -2.18743,2.08751 -4.85031,3.44075 -7.77214,3.9497 -1.16404,0.20276 -3.7064,0.34712 -4.58672,0.26044 z m -3.283515,-1.64885 c 0.10166,-0.13655 0.592458,-0.78781 1.09066,-1.44723 1.605925,-2.12564 2.870075,-4.91536 3.395755,-7.49379 0.11644,-0.57114 0.2127,-1.23803 0.21391,-1.48197 0.002,-0.39675 0.10793,-0.51909 1.00437,-1.15966 1.29195,-0.9232 3.45661,-2.04466 4.96575,-2.57264 0.65426,-0.2289 1.20351,-0.41618 1.22054,-0.41618 0.0912,0 -0.22939,2.24123 -0.4586,3.20632 -1.20564,5.07641 -4.84934,8.98873 -10.439877,11.20953 -1.19417,0.47438 -1.234522,0.4807 -0.992508,0.15562 z m -1.886911,-0.72676 c -1.012042,-2.25228 -1.41037,-4.09972 -1.401946,-6.50219 0.0085,-2.41689 0.428459,-4.24276 1.518472,-6.60153 0.579135,-1.25324 2.121974,-3.58179 3.079649,-4.64801 l 0.665551,-0.74099 0.36123,0.80835 c 1.6711,3.73957 1.88396,7.79974 0.6012,11.46795 -0.76066,2.1752 -2.212817,4.61175 -3.884568,6.51784 l -0.531727,0.60626 z"
       id="path854"
       sodipodi:nodetypes="csssscccccccccsssscsssscssccccccsssccccccssscccscccccccccccssssccccsccccccscccccsssccssssssscssscssssscsccssssscsssssscssscsssssscsssscssscsssscccccscccccccssscccccsssccsscccccccsscsscsscccccccccccccccccccccsssssscccccccscccssscsscssssssssssscssssscsssscsssc" />
  </g>
</svg>
