<?xml version="1.0" encoding="UTF-8" standalone="no"?>
<!-- Created with Inkscape (http://www.inkscape.org/) -->

<svg
   width="158.95087mm"
   height="113.23314mm"
   viewBox="0 0 158.95087 113.23314"
   version="1.1"
   id="svg5"
   inkscape:version="1.1.2 (0a00cf5339, 2022-02-04)"
   sodipodi:docname="universo.svg"
   xmlns:inkscape="http://www.inkscape.org/namespaces/inkscape"
   xmlns:sodipodi="http://sodipodi.sourceforge.net/DTD/sodipodi-0.dtd"
   xmlns="http://www.w3.org/2000/svg"
   xmlns:svg="http://www.w3.org/2000/svg">
  <sodipodi:namedview
     id="namedview7"
     pagecolor="#ffffff"
     bordercolor="#000000"
     borderopacity="0.25"
     inkscape:pageshadow="2"
     inkscape:pageopacity="0.0"
     inkscape:pagecheckerboard="0"
     inkscape:document-units="mm"
     showgrid="false"
     fit-margin-top="0"
     fit-margin-left="0"
     fit-margin-right="0"
     fit-margin-bottom="0"
     inkscape:zoom="0.77771465"
     inkscape:cx="358.1005"
     inkscape:cy="528.47147"
     inkscape:window-width="2560"
     inkscape:window-height="1363"
     inkscape:window-x="0"
     inkscape:window-y="0"
     inkscape:window-maximized="1"
     inkscape:current-layer="layer1" />
  <defs
     id="defs2" />
  <g
     inkscape:label="Layer 1"
     inkscape:groupmode="layer"
     id="layer1"
     transform="translate(-10.140011,-8.5772775)">
    <path
       style="fill:#000000;stroke-width:0.199211"
       d="m 15.95246,121.39605 c -1.987226,-0.52056 -3.533356,-1.57506 -4.373037,-2.98253 -1.255152,-2.10387 -1.430627,-3.60755 -1.435512,-12.30131 l -0.0039,-7.022204 h 2.975239 2.975239 l 0.06535,7.520234 c 0.07504,8.63439 0.105582,8.81477 1.645375,9.71715 0.692,0.40554 1.104447,0.49244 2.337212,0.49244 1.85241,0 2.618705,-0.43313 3.34875,-1.8928 l 0.498029,-0.99576 0.06474,-7.42063 0.06474,-7.420634 h 2.873625 2.873624 v 7.503914 c 0,4.59293 -0.08602,8.01257 -0.221748,8.81511 -0.563097,3.3296 -2.56539,5.3915 -5.927697,6.10417 -1.959193,0.41528 -5.957982,0.35491 -7.759999,-0.11715 z m 115.70653,0.0456 c -1.44978,-0.45772 -2.90813,-1.24058 -3.87014,-2.07756 l -0.78237,-0.68067 1.12937,-1.87801 c 0.62115,-1.03291 1.21142,-2.0043 1.3117,-2.15865 0.14502,-0.22322 0.40012,-0.0897 1.24668,0.65239 1.35663,1.18926 2.55879,1.7703 3.89131,1.88081 1.25708,0.10424 2.07696,-0.193 2.75501,-0.99881 0.5871,-0.69773 0.65074,-1.72378 0.1586,-2.5569 -0.30486,-0.51608 -2.21115,-1.58542 -2.82631,-1.58542 -0.346,0 -2.6238,-0.80671 -3.51188,-1.24378 -2.65297,-1.30563 -3.68586,-4.14872 -2.68475,-7.38991 0.98045,-3.17435 4.51345,-5.236674 8.23172,-4.805124 2.03731,0.23646 5.02639,1.2644 5.3907,1.853864 0.0832,0.13459 -1.32695,3.79542 -1.6178,4.19998 -0.0338,0.047 -0.32528,-0.10962 -0.64776,-0.34804 -2.16401,-1.59992 -5.62636,-1.59088 -6.057,0.0158 -0.40444,1.509 0.16265,2.17443 2.42742,2.84838 4.25284,1.26553 5.68604,2.13404 6.53689,3.96129 0.64843,1.3925 0.67286,4.33136 0.0502,6.02975 -0.57725,1.57432 -2.41321,3.40059 -4.06927,4.04778 -1.60915,0.62885 -5.41086,0.75418 -7.06227,0.23281 z m 22.5109,0.0382 c -4.6016,-1.23539 -8.07954,-5.07128 -8.63057,-9.51882 -0.50129,-4.04617 0.60619,-7.24003 3.45392,-9.96074 2.44671,-2.337574 4.87223,-3.308614 8.26443,-3.308614 7.72771,0 13.20147,6.741974 11.53238,14.204304 -0.64996,2.90592 -2.71435,5.72338 -5.34569,7.29574 -2.47237,1.47737 -6.49072,2.03547 -9.27447,1.28813 z m 5.58204,-5.20775 c 4.4057,-2.25227 4.55697,-9.3945 0.2524,-11.91714 -0.75202,-0.44072 -1.26497,-0.57345 -2.49027,-0.64438 -1.37367,-0.0795 -1.66338,-0.0305 -2.63775,0.4462 -1.20837,0.5912 -2.25993,1.69249 -2.9466,3.08594 -0.38053,0.77219 -0.44872,1.23122 -0.4462,3.00323 0.004,2.4084 0.32116,3.34837 1.61807,4.78691 1.65153,1.8319 4.46537,2.35623 6.65035,1.23924 z M 34.244558,110.14624 V 99.090006 h 2.842561 2.842559 l 2.876835,3.934424 c 1.582257,2.16394 3.507919,4.78297 4.27925,5.82008 0.77133,1.03711 1.80582,2.66474 2.298869,3.61697 l 0.896452,1.73131 -0.06803,-7.55139 -0.06803,-7.551394 h 2.807189 2.807187 v 11.056234 11.05624 h -2.872584 -2.872584 l -0.98342,-1.34468 c -6.159968,-8.42282 -7.762206,-10.71113 -8.430735,-12.04077 -0.430123,-0.85547 -0.803455,-1.55544 -0.829624,-1.55548 -0.02617,-3e-5 -0.0169,3.36166 0.02063,7.47043 l 0.06821,7.4705 h -2.807366 -2.807368 z m 26.096707,0 V 99.090006 h 2.988173 2.988173 v 11.056234 11.05624 h -2.988173 -2.988173 z m 16.444093,10.41513 c -0.15909,-0.35957 -0.70052,-1.63986 -1.2032,-2.84509 -0.50268,-1.20523 -1.08439,-2.59473 -1.2927,-3.08778 -0.20831,-0.49304 -0.73546,-1.74808 -1.17145,-2.78896 -2.16236,-5.16245 -2.8283,-6.74196 -4.299775,-10.19841 -0.498812,-1.17169 -0.90693,-2.225024 -0.90693,-2.340734 0,-0.13862 1.047452,-0.21039 3.070175,-0.21039 h 3.07017 l 0.53981,1.444284 c 1.48447,3.97182 3.98312,11.11864 4.44005,12.69974 l 0.37421,1.29487 0.22439,-0.89646 c 0.36769,-1.46887 3.08017,-9.38562 4.7096,-13.745594 l 0.26058,-0.69724 3.11016,-0.0549 c 1.7106,-0.0302 3.11018,0.0185 3.11018,0.10818 0,0.0897 -0.54538,1.459054 -1.21196,3.043044 -0.66658,1.58399 -1.79403,4.26949 -2.50545,5.96776 -3.37798,8.06381 -3.28707,7.84794 -4.5301,10.75742 l -0.89366,2.09173 -2.30242,0.0561 -2.30242,0.0561 z m 15.62896,-10.41513 V 99.090006 h 6.67358 6.673592 v 2.386244 2.38623 l -3.83482,0.0541 -3.834822,0.0541 -0.057,1.94231 -0.057,1.94232 h 3.692632 3.69262 v 2.28643 2.28644 l -3.63561,0.0543 -3.635602,0.0543 -0.057,1.94231 -0.057,1.94232 h 3.891842 3.89184 v 2.39053 2.39054 h -6.673592 -6.67358 z m 16.932982,0 V 99.090006 l 4.33285,0.002 c 6.69771,0.002 8.44893,0.32405 10.15519,1.865564 0.42594,0.38482 1.03825,1.2203 1.36068,1.85664 0.53383,1.05356 0.58588,1.33504 0.58234,3.14909 -0.005,2.20027 -0.40099,3.44412 -1.45107,4.54984 -0.63011,0.66348 -1.9018,1.4259 -2.67868,1.60595 -0.30131,0.0699 -0.54783,0.22269 -0.54783,0.33968 0,0.117 1.29791,2.13231 2.88426,4.47847 l 2.88425,4.26566 h -3.3735 -3.37349 l -0.8354,-1.44428 c -2.5434,-4.39722 -4.07993,-6.92234 -4.21227,-6.92247 -0.0822,-7e-5 -0.14941,1.88241 -0.14941,4.18331 v 4.18344 h -2.78896 -2.78896 z m 9.53698,-1.03951 c 0.85748,-0.62817 1.26007,-1.59984 1.13637,-2.74268 -0.20358,-1.88097 -1.30278,-2.69137 -3.65114,-2.69187 l -1.44429,-3.1e-4 v 3.01625 3.01625 l 1.71793,-0.10717 c 1.25598,-0.0784 1.85861,-0.21025 2.24113,-0.49047 z M 85.342308,95.182616 c -7.9625,-1.14114 -13.23336,-2.96494 -18.925091,-6.54841 -1.958696,-1.23317 -4.270223,-2.91729 -4.278086,-3.11691 -0.0027,-0.0693 0.779433,-0.36716 1.738138,-0.662 0.958706,-0.29483 3.401537,-1.06417 5.428514,-1.70963 2.026975,-0.64546 6.688525,-2.12277 10.358995,-3.28292 3.67048,-1.16014 8.37685,-2.64894 10.4586,-3.30845 2.08177,-0.65951 4.3229,-1.36591 4.9803,-1.56976 0.65739,-0.20387 2.36065,-0.74134 3.78501,-1.1944 1.424372,-0.45305 3.127632,-0.99053 3.785022,-1.19439 0.6574,-0.20386 2.94335,-0.9257 5.0799,-1.60408 2.13654,-0.67839 4.96036,-1.57254 6.27516,-1.987 1.31479,-0.41445 4.54202,-1.441596 7.17161,-2.282538 2.62959,-0.840939 5.31895,-1.691908 5.97634,-1.891038 0.65741,-0.199129 1.89003,-0.586059 2.73917,-0.859844 1.06289,-0.342705 1.54389,-0.422928 1.54389,-0.257501 0,0.402495 -1.12155,3.586481 -1.91612,5.439731 -1.99437,4.65164 -4.71686,8.75032 -8.35098,12.57235 -5.55267,5.83979 -12.24556,9.89358 -19.79333,11.98855 -4.089482,1.13508 -6.257072,1.42736 -11.076752,1.49363 -2.41046,0.0331 -4.65159,0.0217 -4.98029,-0.0254 z M 53.905959,76.728506 c -1.562072,-2.2571 -2.755209,-4.30317 -3.634546,-6.23275 l -0.66616,-1.46178 0.935551,-0.298167 c 0.514551,-0.163987 2.414695,-0.758866 4.222539,-1.321953 1.807844,-0.563085 3.511103,-1.104644 3.785019,-1.203463 0.432312,-0.155962 16.696586,-5.303968 27.690396,-8.764625 8.9992,-2.832792 16.485922,-5.203049 29.931532,-9.476169 5.28983,-1.681148 11.03392,-3.497051 14.78116,-4.672831 0.65173,-0.204497 1.2083,-0.348477 1.23682,-0.319958 0.0285,0.02852 0.19228,0.854903 0.36393,1.836406 0.41394,2.367095 0.73739,7.339871 0.54871,8.435954 l -0.1505,0.874272 -4.08211,1.281493 c -2.24516,0.704821 -5.20268,1.640461 -6.57226,2.079201 -1.36957,0.438738 -3.02801,0.963755 -3.68541,1.166704 -1.53557,0.474056 -5.88878,1.850082 -21.116412,6.674782 -6.79312,2.152317 -14.00956,4.435454 -16.03653,5.073644 -4.13799,1.30282 -7.95572,2.51003 -18.543216,5.86358 -4.008269,1.2696 -7.387992,2.30837 -7.510497,2.30837 -0.122505,0 -0.796613,-0.82922 -1.498016,-1.84271 z M 46.990616,60.868211 c -0.002,-0.06953 -0.136836,-0.933233 -0.29983,-1.919331 -0.398564,-2.411269 -0.71282,-6.931238 -0.567643,-8.164463 l 0.117633,-0.999266 2.020154,-0.631031 c 1.111084,-0.347066 3.185542,-1.003789 4.609904,-1.459383 1.424362,-0.455595 3.12762,-0.994801 3.785018,-1.198233 0.657398,-0.203433 2.360657,-0.740557 3.785019,-1.193612 1.424362,-0.453055 3.127621,-0.989139 3.785019,-1.191301 0.657398,-0.20216 4.019092,-1.264577 7.470428,-2.360926 3.45134,-1.096348 9.00935,-2.860181 12.35112,-3.91963 3.34177,-1.059446 7.19651,-2.283726 8.56609,-2.720623 1.36958,-0.436895 3.02801,-0.959969 3.68542,-1.162385 1.31935,-0.406235 4.215112,-1.320006 18.216202,-5.748211 8.67696,-2.744312 9.47269,-2.961693 9.71703,-2.654567 1.49796,1.88288 5.66747,9.055803 5.40119,9.291827 -0.0364,0.03222 -1.00738,0.345428 -2.15782,0.696003 -1.15045,0.350576 -2.45031,0.761113 -2.88857,0.912307 -0.68385,0.235914 -10.55974,3.358509 -24.30381,7.684467 -2.081752,0.655236 -4.143602,1.314152 -4.581862,1.464258 -0.43827,0.150104 -2.14152,0.691422 -3.78502,1.202925 -1.64349,0.511503 -4.78108,1.500793 -6.9724,2.19842 -2.19133,0.697629 -8.55614,2.714046 -14.14402,4.480929 -5.587882,1.766884 -11.280351,3.570928 -12.649929,4.008986 -1.369579,0.43806 -3.028016,0.960018 -3.685414,1.159907 -0.657397,0.199891 -2.60718,0.810269 -4.332849,1.3564 -1.72567,0.54613 -3.139147,0.936071 -3.14106,0.866533 z m 0.800324,-20.75656 c 0,-0.40721 1.211649,-3.79272 2.010034,-5.616311 4.558406,-10.41184 13.229605,-18.744615 23.887464,-22.955174 5.17931,-2.0461655 10.11021,-2.9628885 15.93692,-2.9628885 9.57993,0 17.978622,2.7404865 25.761872,8.4060845 0.96629,0.703382 1.68345,1.346681 1.5937,1.429553 -0.0898,0.08287 -1.37341,0.526674 -2.85255,0.986225 -1.47915,0.459551 -3.04794,0.957705 -3.48621,1.10701 -0.43827,0.149303 -1.78294,0.580777 -2.98817,0.958831 -2.99102,0.938212 -8.220822,2.596451 -13.944812,4.421545 -2.62959,0.838447 -5.31894,1.686874 -5.97634,1.885394 -0.6574,0.19852 -2.36066,0.734835 -3.78502,1.191811 -1.42436,0.456976 -3.12762,0.99731 -3.78502,1.200743 -0.6574,0.203432 -2.36066,0.740556 -3.78502,1.193611 -1.42436,0.453055 -3.12762,0.99053 -3.78502,1.194391 -1.86823,0.579343 -8.323004,2.619795 -13.24756,4.187757 -7.466898,2.377432 -11.313797,3.582371 -11.437121,3.582371 -0.06443,0 -0.117147,-0.09493 -0.117147,-0.210953 z"
       id="path854" />
  </g>
</svg>
