<?xml version="1.0" encoding="UTF-8" standalone="no"?>
<!-- Created with Inkscape (http://www.inkscape.org/) -->

<svg
   width="174.04463mm"
   height="108.68407mm"
   viewBox="0 0 174.04463 108.68407"
   version="1.1"
   id="svg5"
   inkscape:version="1.1.2 (0a00cf5339, 2022-02-04)"
   sodipodi:docname="waylaid-games.svg"
   xmlns:inkscape="http://www.inkscape.org/namespaces/inkscape"
   xmlns:sodipodi="http://sodipodi.sourceforge.net/DTD/sodipodi-0.dtd"
   xmlns="http://www.w3.org/2000/svg"
   xmlns:svg="http://www.w3.org/2000/svg">
  <sodipodi:namedview
     id="namedview7"
     pagecolor="#ffffff"
     bordercolor="#000000"
     borderopacity="0.25"
     inkscape:pageshadow="2"
     inkscape:pageopacity="0.0"
     inkscape:pagecheckerboard="0"
     inkscape:document-units="mm"
     showgrid="false"
     fit-margin-top="0"
     fit-margin-left="0"
     fit-margin-right="0"
     fit-margin-bottom="0"
     inkscape:zoom="0.52255208"
     inkscape:cx="261.21798"
     inkscape:cy="554.9686"
     inkscape:window-width="2560"
     inkscape:window-height="1363"
     inkscape:window-x="0"
     inkscape:window-y="0"
     inkscape:window-maximized="1"
     inkscape:current-layer="layer1" />
  <defs
     id="defs2" />
  <g
     inkscape:label="Layer 1"
     inkscape:groupmode="layer"
     id="layer1"
     transform="translate(-8.9129569,-8.5341901)">
    <path
       style="fill:#000000;stroke-width:0.170108"
       d="m 102.60562,116.90806 c -7.137505,0.24684 -3.106025,-10.08246 -7.212915,-10.46527 -1.51375,4.11551 -5.58681,8.32407 -10.26745,7.00507 -5.90951,0.94826 -8.3889,-15.513863 -10.7182,-6.69478 -3.212035,4.4062 -10.495003,5.58677 -14.370124,1.34089 -2.737575,5.0044 -9.962637,4.81092 -13.375664,0.71846 -3.593098,1.72238 -7.558202,3.0091 -11.310536,0.92535 -4.328395,-0.92902 -5.120533,-10.578413 -7.137495,-2.69507 -6.637693,8.1335 -17.424674,-6.03906 -7.711149,-10.274653 4.212147,-4.02522 9.677615,7.112043 8.731135,-1.0338 3.532993,-6.14998 -6.656272,-1.90095 -8.656298,-4.69562 -0.889837,11.777273 -18.3256396,2.04132 -8.853894,-4.89298 2.744958,-2.14334 7.665139,2.06615 6.129121,-3.61737 0.985542,-7.21474 11.608302,-9.64755 15.5137,-3.37198 2.677836,4.0475 4.816233,-7.95142 7.939407,-9.69662 1.433392,-2.39368 -7.101967,1.21139 -9.278087,-1.79908 -3.695411,0.92738 -7.48688,3.47897 -11.276049,1.41863 -7.386795,-4.30557 -5.415522,-14.32371 -5.8641,-21.55658 0.44593,-7.02806 -0.938365,-15.6753 4.857061,-20.9169 2.405303,-3.79976 7.935685,-2.6156 10.575726,-1.69644 0.687897,-7.04629 9.107331,-5.37452 12.698737,-5.20267 3.405297,-4.516033 9.116835,-2.61598 12.973618,-0.11819 4.078824,2.94636 10.295029,2.01052 12.562468,-2.63091 4.233063,-3.186163 8.801243,0.13171 12.590983,2.20779 1.87731,3.4393 6.92611,-2.03547 6.22369,-2.53963 -8.49024,-6.412721 8.2839,-12.9816272 6.73151,-2.850025 -2.50736,3.337215 -2.77244,3.179585 1.34481,4.607645 4.624695,4.69796 -0.65724,-7.31387 5.668835,-7.871313 8.66111,-4.5681162 14.36738,10.971303 4.51997,12.870653 -3.33761,1.09412 -8.978995,-3.65965 -3.97727,1.20681 2.97236,1.89648 2.4901,8.44935 4.5448,2.39561 4.31215,-5.1595 12.54549,-8.04537 18.97463,-4.89615 3.79121,4.20089 10.65504,-2.97903 14.98089,2.56864 2.13905,-2.75337 5.98787,-4.2053 9.27157,-2.80955 6.76452,-1.32493 13.84957,-3.37107 20.70152,-1.97971 8.27179,3.11081 5.54524,13.93661 1.59145,19.5144 -1.65935,4.43517 -12.95386,9.96731 -4.13781,12.48561 6.19397,2.75409 3.88444,12.16046 5.39852,15.00402 7.97446,-1.12547 13.31106,9.74939 7.56755,15.34382 -2.65675,4.6876 -10.33429,1.9861 -12.14642,2.10985 0.0462,7.07562 -6.34684,11.86792 -11.22079,16.083433 7.0858,1.69591 8.44341,12.39694 1.72738,15.52236 -6.70985,4.5222 -12.07236,-4.68625 -13.22169,-7.63578 -4.2244,2.33709 -9.37924,4.9633 -13.784,1.32474 -5.24618,-3.18247 -12.80976,5.59231 -19.45716,1.99756 -1.67353,3.72636 -5.6697,6.56627 -9.84198,5.28973 z m 2.51786,-7.20262 c 3.29009,-9.32984 5.69851,-19.105163 9.96887,-28.110393 0.86995,-3.24885 6.37807,-10.47887 3.41744,-12.02747 -3.8833,9.32323 -7.92734,18.67439 -10.64841,28.3863 1.72824,-10.11644 5.13165,-19.87952 9.37153,-29.202 0.98148,-3.88131 -5.98325,-6.51938 -5.6461,-0.97522 -4.18031,0.44016 -5.28299,9.25513 -8.2853,12.56687 -0.88447,1.06966 -2.98908,7.32692 -2.74703,3.60707 -0.29576,-4.28311 0.52997,-8.86164 -1.136025,-12.86782 -6.82937,-6.8852 -5.40322,7.01284 -7.88639,7.31376 2.12383,-2.38534 0.69636,-14.71886 -0.83612,-6.89839 -1.35553,11.60749 -3.36918,23.20078 -4.23963,34.841063 3.7786,-4.48109 5.35722,-11.910633 7.99928,-17.618103 0.21077,-2.08255 2.14347,-9.74156 2.18153,-3.16964 1.82193,4.23994 -1.67811,10.85105 0.84397,13.65531 4.334295,-3.43633 6.134135,-12.99155 9.516725,-15.28321 -1.44633,8.60831 -2.36151,17.344563 -2.66115,26.053523 l 0.2155,0.026 0.5713,-0.29769 z M 88.943405,89.930347 c -0.0551,-2.38075 3.49232,-13.80561 1.79969,-6.11501 -0.63277,2.02084 -0.98982,4.162 -1.79969,6.11501 z m 30.150905,14.645823 c 2.88192,-0.41792 12.96525,-5.312763 9.7958,-5.623053 -3.18074,1.797013 -15.2151,5.200653 -6.26197,1.585803 4.01044,-1.207303 12.8362,-6.395343 8.13597,-10.113573 -3.74156,1.10909 -14.56806,9.670543 -9.91806,0.22638 2.63484,-3.08254 14.29679,-6.6538 11.66967,-10.02225 -3.07703,0.0508 -13.26484,2.06248 -6.85407,-2.6819 4.83206,-2.79787 12.4232,-2.26439 15.05131,-7.5714 -3.69117,-3.47863 -12.18177,1.59016 -17.52774,0.0901 -2.68647,3.23603 -0.80731,5.95032 -3.36966,2.34042 -2.30865,9.80805 -3.76941,19.97155 -5.91518,29.877723 1.17906,2.02586 2.32798,3.33735 5.19393,1.89176 z m -4.13655,-1.60619 c 2.22408,-1.89997 5.31629,0.34999 0,0 z m -60.432636,0.3951 c 2.944505,-5.847573 8.45137,-9.125713 10.776392,-15.169693 3.364272,-3.40207 3.881944,-11.27603 -2.813801,-7.26406 -4.08003,0.30085 -15.683158,3.79112 -7.427681,7.319 7.344275,-2.64356 -0.455459,4.24414 -4.077716,3.54194 -4.470918,1.80433 -10.945594,4.09977 -5.941666,-2.6274 2.75261,-5.88032 7.348745,-11.52086 12.948491,-14.90936 5.206678,3.97462 -2.006218,-9.82903 -5.400603,-2.69299 -2.225719,0.96284 -8.2198,9.1445 -7.235545,7.26615 1.577666,-2.76382 9.264513,-13.15909 2.472362,-6.03631 -5.263408,7.70075 -10.161668,16.19191 -11.640146,25.49995 0.153917,8.305183 7.553992,4.211913 11.958232,2.364423 4.266322,-1.985763 6.908172,-2.591573 4.615949,2.81043 -0.639253,1.69702 1.734765,1.49577 1.765732,-0.10208 z M 42.503203,96.672677 c 0.781366,-0.58058 1.077632,-0.26273 0,0 z m 3.387991,-1.09638 c 0.578622,-0.82762 0.643636,0.4131 0,0 z m -8.141283,-0.28753 c 0.230914,-1.6816 0.4989,-0.55023 0,0.34021 z m 9.085386,-0.0616 c 2.62694,-1.46555 13.979962,-5.65473 7.276034,-2.19711 -2.37275,0.68171 -5.115827,1.7953 -7.276034,2.19711 z m 39.187788,8.131373 c 0.82748,-4.101353 -3.76687,-10.974083 1.36662,-10.962063 -0.84908,-1.95175 -5.32047,0.9162 -3.13911,-3.62588 -0.96586,-3.02326 -0.95903,-8.56998 -0.91614,-12.91403 0.22497,-3.17508 0.50208,-7.43665 -4.39344,-5.73685 -1.99789,3.72343 -4.83416,9.89582 -7.80231,14.36716 -0.63989,-3.29198 6.4636,-12.05197 2.31638,-11.51136 -3.027611,6.41316 -4.93006,13.28338 -6.379037,20.20262 -1.061662,2.59881 -2.007438,7.812673 -0.885964,10.351363 3.549156,-0.97455 1.766971,-7.718363 7.668861,-7.471543 4.80107,-2.36279 7.89797,-2.03192 8.43538,3.67444 0.42829,0.764353 3.08917,6.512423 3.72876,3.626143 z m -7.21594,-10.524573 c 3.89782,-1.14263 -2.49921,1.11643 0,0 z m -5.35841,-2.39812 c 2.09734,-3.00378 5.89377,-12.42244 5.51346,-3.30893 0.56406,2.3538 -3.98679,2.68851 -5.51346,3.30893 z m 64.801945,13.370793 c 8.55803,-4.091793 16.73143,-9.746153 22.51057,-17.375063 0.77211,-4.39938 -5.26747,6.2858 -8.2547,6.86198 -2.69995,2.4251 -11.13448,8.378593 -3.79757,2.53485 3.48891,-5.28007 14.37212,-9.75201 10.75902,-16.8657 -4.90714,-0.52596 -11.17137,3.04326 -15.91112,4.47944 2.90833,-3.94086 8.2699,-13.97746 12.75579,-8.44874 1.64417,-4.398 -3.96648,-7.52117 -6.48243,-7.93147 -6.06199,1.43193 -9.92077,9.53715 -12.55664,15.2604 -3.1508,3.79739 0.27086,16.55342 4.02854,8.06646 3.19636,-1.90631 10.59584,-6.68483 11.78598,-5.07017 -4.60969,6.26048 -11.29573,10.38084 -17.49612,14.767113 -0.51853,1.62599 0.17537,5.32309 2.65868,3.7209 z m -0.15859,-18.647813 c 0.91787,-2.99845 1.34181,-1.64745 0,0 z m 1.2006,-2.88334 c 0.20873,-1.46486 0.87414,-0.49573 0,0 z m 2.62058,-5.06072 c 1.40508,-1.83309 -0.97645,1.80391 0,0 z M 65.004835,63.648617 c 2.376685,-3.54287 4.626012,-0.42097 5.041709,-5.04508 4.328501,-4.27591 8.167031,-9.43103 13.003811,-13.43864 3.19349,-4.11456 8.44954,-7.71209 9.66158,-12.79383 -1.35848,-1.77832 -8.65908,10.8261 -4.1095,3.08115 3.13148,-2.90726 8.49715,-11.81324 0.9525,-10.73701 -3.21954,2.45676 -7.91385,15.85437 -8.63292,6.02517 0.47385,-4.04019 -6.84821,-7.75902 -8.30988,-6.97786 0.92029,6.19649 4.32166,12.15388 4.87333,18.15887 -2.87967,4.41129 -6.230011,8.6557 -8.233591,13.47698 -1.310606,-2.33511 -2.007313,-5.4301 1.304993,-4.25269 1.326458,-3.31117 -5.677558,0.10619 -2.899155,-4.42282 -1.255804,-2.80652 -0.884821,-9.91654 -0.863171,-14.55543 1.377289,-6.53285 -7.484054,-4.58099 -6.292295,0.10281 -1.733922,2.37003 -5.095975,9.59378 -5.997649,9.77465 -0.508872,-3.32754 6.415496,-10.59011 2.603259,-11.55067 -3.268942,6.58654 -5.146259,13.75224 -6.698836,20.90629 -0.831003,2.00365 -3.470369,12.36923 1.503683,9.16994 -2.272309,-5.83315 12.747371,-11.70713 13.13131,-4.53384 3.239316,2.5618 -1.351096,7.02097 -0.03915,7.61201 z m -2.868299,-12.83093 c 3.082394,-1.10188 -1.1255,1.05796 0,0 z m -5.188302,-2.5396 c 2.015187,-3.06007 5.631629,-11.48757 5.406853,-3.31263 0.850841,2.275 -4.097187,2.99473 -5.406853,3.31263 z m 22.660991,-10.17366 c -1.55318,-3.04994 -3.7424,-11.93964 -1.01666,-4.10763 0.1668,0.85847 1.5185,4.22193 1.01666,4.10763 z m 61.028295,25.03638 c 5.08897,-3.97123 8.58748,-10.52507 13.81024,-14.91245 4.34685,-4.95864 9.7681,-9.58388 12.56053,-15.59385 5.52965,-9.85231 -9.15255,-4.82809 -14.1392,-4.2739 -4.33848,1.49652 -6.08635,-0.2131 -8.92475,2.50227 -3.5342,1.01171 -10.4206,4.38227 -4.53884,7.76201 5.53267,-3.23136 1.20266,11.27804 1.77847,10.42395 -0.5831,-8.54469 -2.56055,2.11567 -1.61246,5.17071 0.79785,2.0101 -2.03787,9.92222 1.06601,8.92126 z m 3.06593,-7.5932 c 0.54089,-6.6856 2.22853,-13.27966 4.32749,-19.57692 3.01104,-1.45301 14.30447,-5.76679 8.5245,1.19079 -3.4286,6.71341 -7.69179,12.89056 -12.85199,18.38613 z m -0.66271,-12.8223 c -0.6266,-3.85082 2.37946,-8.29132 0.67201,-2.03861 -0.16746,0.52504 -0.64094,3.78108 -0.67201,2.03861 z m 13.44354,-2.72467 c 0.62965,-2.48999 7.91406,-11.32145 3.56558,-4.58999 -0.8507,1.29544 -3.07692,4.42381 -3.56558,4.58999 z m -79.123055,23.13435 c 5.41448,1.42721 4.6246,-3.58486 4.10095,-6.3101 -0.59691,1.03611 -6.79035,7.0412 -4.10095,6.3101 z m -52.746353,-0.52997 c 1.524586,-2.44849 5.925041,-1.004 6.10775,-5.95413 1.500644,-4.01329 3.555713,-11.27906 5.2119,-13.00801 1.418194,5.40972 -3.384351,15.61282 1.677003,18.12392 4.117381,-2.73114 5.525887,-9.8009 7.921561,-14.5644 2.517505,-6.61197 6.831227,-12.50764 9.004811,-19.19225 -1.743917,-4.26401 -4.222249,6.67298 -6.118589,8.30017 -4.495708,7.49824 2.649116,-6.46523 2.915371,-9.22398 -2.344547,-6.96322 -6.350965,5.29763 -7.802063,8.80502 -1.456663,2.74311 -3.716034,13.18477 -4.423803,11.38127 -0.53018,-6.53538 1.173951,-13.76388 0.74064,-19.70487 -4.71531,-3.37038 -3.385493,7.72669 -6.218823,10.4694 -2.036394,4.20474 -4.401044,12.61806 -6.183508,14.62439 -0.753914,-6.58839 0.867434,-13.54759 -0.250173,-19.8874 -2.608901,-4.43824 -1.542051,2.47946 -4.168412,1.38755 -1.176753,8.84137 -1.223729,17.94542 -0.180544,26.79631 0.231305,0.51732 0.697362,2.29185 1.766879,1.64701 z m -0.389248,-4.44751 c -0.730861,-4.75037 -0.171956,-16.05964 0.472427,-17.16518 -1.215704,6.06262 2.562167,13.17961 -0.215961,18.38843 l -0.256456,-1.22325 z m 100.537876,3.5774 c 0.63922,-4.60778 -3.15268,-10.87397 1.46065,-11.57199 -1.78132,-0.67379 -5.39385,-0.73786 -2.68918,-4.44167 -3.55546,-4.04968 0.40235,-12.4992 -2.08309,-17.43117 -7.08755,-2.42103 -5.12898,7.45517 -9.63703,10.9411 -4.14168,7.68006 0.58248,-4.83748 1.74168,-6.85964 -0.20601,-5.74886 -4.14615,5.03818 -4.64715,7.12171 -1.88477,4.02507 -1.21278,12.69815 -6.77922,11.39172 7.05092,-3.85382 -6.417375,-0.45032 -8.779215,0.51161 0.21948,-4.34232 2.42631,-11.08423 3.30168,-16.31187 3.727725,-4.23391 -4.2922,-9.50237 -3.47053,-2.42196 -0.89773,9.322 -3.82675,18.3713 -4.37311,27.72505 5.04207,2.20766 12.690125,-5.71264 16.322615,-5.15715 -2.61511,3.27193 0.848,9.64819 1.86412,3.7926 0.16849,-4.97887 7.80829,-5.28385 11.6453,-6.65654 2.07228,1.64707 2.6505,9.76803 6.12248,9.3682 z m -32.561485,-7.0595 c 2.88381,-1.82196 0.76932,0.5031 0,0 z m 25.389825,-3.867 c 2.81442,-1.08016 -1.19301,1.09972 0,0 z m -5.1883,-2.61195 c 1.84182,-2.89731 5.56568,-11.26289 5.35735,-3.3393 0.90983,2.31695 -4.14804,3.29169 -5.35735,3.3393 z m 15.56897,11.95213 c 3.23755,-3.83868 3.0832,-11.11739 5.5512,-16.14747 2.17751,-3.01464 4.63254,-15.25553 0.31084,-13.06129 0.005,4.55583 -2.47028,-5.22909 -2.62724,0.9836 -1.45352,8.89042 -3.34504,17.70186 -5.32255,26.4836 -0.26139,1.01594 1.11969,2.96407 2.08775,1.74156 z m 40.11682,49.173673 c -10.7894,-2.53373 0.18945,-17.978153 6.04581,-8.46105 2.47421,4.11245 -1.39573,9.44159 -6.04581,8.46105 z"
       id="path854" />
  </g>
</svg>
